SplineFontDB: 3.2
FontName: SeaFolkAlphabet
FullName: Sea Folk Alphabet
FamilyName: Sea Folk Alphabet
Weight: Book
Copyright: Copyright (c) 2019, Unknown
Version: 001.000
ItalicAngle: 0
UnderlinePosition: -101
UnderlineWidth: 51
Ascent: 819
Descent: 205
InvalidEm: 0
sfntRevision: 0x00010000
LayerCount: 2
Layer: 0 1 "Back" 1
Layer: 1 1 "Fore" 0
XUID: [1021 370 -376329042 266403]
StyleMap: 0x0000
FSType: 0
OS2Version: 4
OS2_WeightWidthSlopeOnly: 0
OS2_UseTypoMetrics: 1
CreationTime: 1570310722
ModificationTime: 1586914272
PfmFamily: 17
TTFWeight: 400
TTFWidth: 5
LineGap: 92
VLineGap: 0
Panose: 2 0 5 3 0 0 0 0 0 0
OS2TypoAscent: 819
OS2TypoAOffset: 0
OS2TypoDescent: -205
OS2TypoDOffset: 0
OS2TypoLinegap: 92
OS2WinAscent: 807
OS2WinAOffset: 0
OS2WinDescent: 4
OS2WinDOffset: 0
HheadAscent: 807
HheadAOffset: 0
HheadDescent: -4
HheadDOffset: 0
OS2SubXSize: 665
OS2SubYSize: 716
OS2SubXOff: 0
OS2SubYOff: 143
OS2SupXSize: 665
OS2SupYSize: 716
OS2SupXOff: 0
OS2SupYOff: 491
OS2StrikeYSize: 51
OS2StrikeYPos: 265
OS2XHeight: 756
OS2Vendor: 'PfEd'
OS2CodePages: 00000001.00000000
OS2UnicodeRanges: 2000000f.00000000.00000000.00000000
MarkAttachClasses: 1
DEI: 91125
ShortTable: cvt  2
  34
  648
EndShort
ShortTable: maxp 16
  1
  0
  72
  116
  4
  0
  0
  2
  0
  1
  1
  0
  64
  46
  0
  0
EndShort
LangName: 1033 "" "" "Regular"
GaspTable: 1 65535 2 0
Encoding: UnicodeBmp
UnicodeInterp: none
NameList: AGL For New Fonts
DisplaySize: -48
AntiAlias: 1
FitToEm: 0
WinInfo: 312 12 9
BeginPrivate: 0
EndPrivate
BeginChars: 65539 73

StartChar: .notdef
Encoding: 65536 -1 0
Width: 374
Flags: W
LayerCount: 2
Fore
SplineSet
34 0 m 1,0,-1
 34 682 l 1,1,-1
 306 682 l 1,2,-1
 306 0 l 1,3,-1
 34 0 l 1,0,-1
68 34 m 1,4,-1
 272 34 l 1,5,-1
 272 648 l 1,6,-1
 68 648 l 1,7,-1
 68 34 l 1,4,-1
EndSplineSet
Validated: 1
EndChar

StartChar: exclam
Encoding: 33 33 4
Width: 774
Flags: W
LayerCount: 2
Fore
SplineSet
307 193 m 1,0,-1
 430 193 l 1,1,-1
 430 90 l 1,2,-1
 307 90 l 1,3,-1
 307 193 l 1,0,-1
323 738 m 2,4,5
 323 752 323 752 334 763.5 c 128,-1,6
 345 775 345 775 360 775 c 128,-1,7
 375 775 375 775 386.5 763.5 c 128,-1,8
 398 752 398 752 398 737 c 2,9,-1
 409 334 l 2,10,11
 409 319 409 319 397 307.5 c 128,-1,12
 385 296 385 296 370 296 c 128,-1,13
 355 296 355 296 343.5 307.5 c 128,-1,14
 332 319 332 319 332 334 c 2,15,-1
 332 335 l 1,16,-1
 323 737 l 1,17,-1
 323 738 l 2,4,5
EndSplineSet
Validated: 1
EndChar

StartChar: dollar
Encoding: 36 36 5
Width: 778
Flags: W
LayerCount: 2
Fore
SplineSet
264 529 m 0,0,1
 264 525 264 525 263 517.5 c 128,-1,2
 262 510 262 510 262 507 c 0,3,4
 262 479 262 479 287 454 c 128,-1,5
 312 429 312 429 367 408 c 1,6,-1
 370 635 l 1,7,8
 369 634 369 634 367.5 633 c 128,-1,9
 366 632 366 632 365 632 c 0,10,11
 304 612 304 612 280 588 c 0,12,13
 262 570 262 570 262 550 c 0,14,15
 262 547 262 547 263 539.5 c 128,-1,16
 264 532 264 532 264 529 c 0,0,1
365 327 m 1,17,18
 185 385 185 385 185 508 c 0,19,20
 185 515 185 515 187 529 c 0,21,22
 185 543 185 543 185 549 c 0,23,24
 185 582 185 582 199 608.5 c 128,-1,25
 213 635 213 635 238 653 c 128,-1,26
 263 671 263 671 285.5 682 c 128,-1,27
 308 693 308 693 337 703 c 1,28,29
 356 714 356 714 372 718 c 1,30,-1
 372 735 l 2,31,32
 372 750 372 750 384 761.5 c 128,-1,33
 396 773 396 773 411 773 c 128,-1,34
 426 773 426 773 437.5 761 c 128,-1,35
 449 749 449 749 449 734 c 2,36,-1
 449 733 l 1,37,-1
 449 707 l 1,38,39
 472 700 472 700 496 690.5 c 128,-1,40
 520 681 520 681 553 666.5 c 128,-1,41
 586 652 586 652 598 647 c 0,42,43
 621 638 621 638 621 611 c 0,44,45
 621 596 621 596 609.5 584.5 c 128,-1,46
 598 573 598 573 583 573 c 0,47,48
 577 573 577 573 567 577 c 0,49,50
 457 622 457 622 446 626 c 1,51,-1
 442 385 l 1,52,53
 467 380 467 380 488 380 c 0,54,55
 550 380 550 380 600 330 c 0,56,57
 637 293 637 293 637 249 c 0,58,59
 637 195 637 195 584 142 c 0,60,61
 576 134 576 134 559.5 118.5 c 128,-1,62
 543 103 543 103 535 95 c 0,63,64
 500 60 500 60 437 54 c 1,65,-1
 436 33 l 2,66,67
 436 18 436 18 424.5 7 c 128,-1,68
 413 -4 413 -4 398 -4 c 128,-1,69
 383 -4 383 -4 371 7.5 c 128,-1,70
 359 19 359 19 359 34 c 2,71,-1
 359 35 l 1,72,-1
 360 57 l 1,73,74
 347 59 347 59 312 66 c 0,75,76
 213 85 213 85 166 132 c 0,77,78
 161 137 161 137 152 147 c 128,-1,79
 143 157 143 157 138 162 c 0,80,81
 110 190 110 190 106 216 c 2,82,-1
 102 236 l 2,83,84
 102 237 102 237 101.5 239.5 c 128,-1,85
 101 242 101 242 101 243 c 0,86,87
 101 258 101 258 113 270 c 128,-1,88
 125 282 125 282 140 282 c 0,89,90
 154 282 154 282 163 273.5 c 128,-1,91
 172 265 172 265 175.5 255.5 c 128,-1,92
 179 246 179 246 182 229 c 0,93,94
 185 225 185 225 196 213.5 c 128,-1,95
 207 202 207 202 211 197 c 0,96,97
 247 151 247 151 361 135 c 1,98,-1
 365 327 l 1,17,18
560 249 m 2,99,-1
 560 251 l 2,100,101
 560 261 560 261 546 275 c 0,102,103
 518 303 518 303 488 303 c 0,104,105
 471 303 471 303 441 307 c 1,106,-1
 438 132 l 1,107,108
 452 134 452 134 462.5 139 c 128,-1,109
 473 144 473 144 475.5 146.5 c 128,-1,110
 478 149 478 149 489 160 c 0,111,112
 492 163 492 163 508.5 178.5 c 128,-1,113
 525 194 525 194 533.5 203 c 128,-1,114
 542 212 542 212 551 225.5 c 128,-1,115
 560 239 560 239 560 249 c 2,99,-1
EndSplineSet
Validated: 1
EndChar

StartChar: percent
Encoding: 37 37 6
Width: 770
Flags: W
LayerCount: 2
Fore
SplineSet
679 714 m 128,-1,1
 694 714 694 714 706 702 c 128,-1,2
 718 690 718 690 718 675 c 0,3,4
 718 658 718 658 706 647 c 2,5,-1
 132 115 l 2,6,7
 121 104 121 104 105 104 c 0,8,9
 90 104 90 104 79 115.5 c 128,-1,10
 68 127 68 127 68 142 c 0,11,12
 68 160 68 160 80 171 c 2,13,-1
 653 703 l 2,14,0
 664 714 664 714 679 714 c 128,-1,1
93 613 m 128,-1,16
 93 659 93 659 127 691.5 c 128,-1,17
 161 724 161 724 208 724 c 128,-1,18
 255 724 255 724 289 691.5 c 128,-1,19
 323 659 323 659 323 613 c 128,-1,20
 323 567 323 567 289 535 c 128,-1,21
 255 503 255 503 208 503 c 128,-1,22
 161 503 161 503 127 535 c 128,-1,15
 93 567 93 567 93 613 c 128,-1,16
450 187 m 128,-1,24
 450 233 450 233 482 265.5 c 128,-1,25
 514 298 514 298 560 298 c 128,-1,26
 606 298 606 298 638.5 265.5 c 128,-1,27
 671 233 671 233 671 187 c 128,-1,28
 671 141 671 141 638.5 109 c 128,-1,29
 606 77 606 77 560 77 c 128,-1,30
 514 77 514 77 482 109 c 128,-1,23
 450 141 450 141 450 187 c 128,-1,24
EndSplineSet
Validated: 1
EndChar

StartChar: parenleft
Encoding: 40 40 7
Width: 761
Flags: W
LayerCount: 2
Fore
SplineSet
484 115 m 0,0,1
 484 99 484 99 473 88 c 128,-1,2
 462 77 462 77 446 77 c 0,3,4
 436 77 436 77 428 81 c 0,5,6
 342 126 342 126 278.5 197.5 c 128,-1,7
 215 269 215 269 202 355 c 0,8,9
 199 373 199 373 199 394 c 0,10,11
 199 504 199 504 288 593 c 0,12,13
 343 648 343 648 438 694 c 0,14,15
 448 698 448 698 455 698 c 0,16,17
 471 698 471 698 482 687 c 128,-1,18
 493 676 493 676 493 659 c 0,19,20
 493 636 493 636 471 626 c 0,21,22
 388 586 388 586 331.5 527.5 c 128,-1,23
 275 469 275 469 275 394 c 0,24,25
 275 389 275 389 276.5 379 c 128,-1,26
 278 369 278 369 278 368 c 0,27,28
 288 302 288 302 341 245 c 128,-1,29
 394 188 394 188 465 150 c 0,30,31
 484 138 484 138 484 115 c 0,0,1
EndSplineSet
Validated: 1
EndChar

StartChar: parenright
Encoding: 41 41 8
Width: 770
Flags: W
LayerCount: 2
Fore
SplineSet
344 72 m 0,0,1
 329 72 329 72 317.5 83.5 c 128,-1,2
 306 95 306 95 306 110 c 0,3,4
 306 127 306 127 318 138 c 0,5,6
 356 172 356 172 373 189 c 0,7,8
 488 304 488 304 499 390 c 0,9,10
 500 397 500 397 500 411 c 0,11,12
 500 492 500 492 401 591 c 0,13,14
 378 614 378 614 332 653 c 0,15,16
 318 665 318 665 318 683 c 0,17,18
 318 699 318 699 329 710.5 c 128,-1,19
 340 722 340 722 356 722 c 0,20,21
 370 722 370 722 381 713 c 0,22,23
 428 673 428 673 456 645 c 0,24,25
 577 524 577 524 577 411 c 0,26,27
 577 410 577 410 574 380 c 0,28,29
 560 267 560 267 427 134 c 0,30,31
 410 117 410 117 370 81 c 0,32,33
 360 72 360 72 344 72 c 0,0,1
EndSplineSet
Validated: 1
EndChar

StartChar: asterisk
Encoding: 42 42 9
Width: 1024
Flags: W
LayerCount: 2
Fore
SplineSet
770 189 m 0,0,1
 770 173 770 173 758.5 161.5 c 128,-1,2
 747 150 747 150 731 150 c 0,3,4
 717 150 717 150 706 161 c 2,5,-1
 538 319 l 1,6,-1
 541 111 l 2,7,8
 541 95 541 95 529.5 84 c 128,-1,9
 518 73 518 73 502 73 c 0,10,11
 487 73 487 73 475.5 84 c 128,-1,12
 464 95 464 95 464 110 c 2,13,-1
 461 295 l 1,14,-1
 334 163 l 2,15,16
 323 150 323 150 305 150 c 0,17,18
 289 150 289 150 278 161.5 c 128,-1,19
 267 173 267 173 267 189 c 128,-1,20
 267 205 267 205 278 216 c 2,21,-1
 412 354 l 1,22,-1
 225 347 l 1,23,-1
 223 347 l 2,24,25
 207 347 207 347 196.5 358.5 c 128,-1,26
 186 370 186 370 186 386 c 0,27,28
 186 401 186 401 197 412.5 c 128,-1,29
 208 424 208 424 222 424 c 2,30,-1
 420 431 l 1,31,-1
 247 595 l 2,32,33
 235 606 235 606 235 623 c 0,34,35
 235 638 235 638 246.5 649.5 c 128,-1,36
 258 661 258 661 273 661 c 0,37,38
 289 661 289 661 299 651 c 2,39,-1
 459 501 l 1,40,-1
 456 697 l 2,41,42
 456 712 456 712 467.5 723.5 c 128,-1,43
 479 735 479 735 494 735 c 0,44,45
 510 735 510 735 521.5 723.5 c 128,-1,46
 533 712 533 712 533 697 c 2,47,-1
 536 483 l 1,48,-1
 704 658 l 2,49,50
 714 670 714 670 731 670 c 0,51,52
 747 670 747 670 758.5 659 c 128,-1,53
 770 648 770 648 770 632 c 0,54,55
 770 615 770 615 760 605 c 2,56,-1
 598 437 l 1,57,-1
 788 444 l 1,58,-1
 789 444 l 2,59,60
 805 444 805 444 816.5 433 c 128,-1,61
 828 422 828 422 828 406 c 0,62,63
 828 391 828 391 817 379 c 128,-1,64
 806 367 806 367 791 367 c 2,65,-1
 606 361 l 1,66,-1
 758 217 l 2,67,68
 770 206 770 206 770 189 c 0,0,1
EndSplineSet
Validated: 1
EndChar

StartChar: plus
Encoding: 43 43 10
Width: 770
Flags: W
LayerCount: 2
Fore
SplineSet
127 355 m 2,0,1
 111 355 111 355 100 366.5 c 128,-1,2
 89 378 89 378 89 394 c 128,-1,3
 89 410 89 410 100.5 421 c 128,-1,4
 112 432 112 432 128 432 c 2,5,-1
 361 431 l 1,6,-1
 359 665 l 2,7,8
 359 681 359 681 370.5 691.5 c 128,-1,9
 382 702 382 702 398 702 c 0,10,11
 413 702 413 702 424.5 691 c 128,-1,12
 436 680 436 680 436 665 c 2,13,-1
 438 430 l 1,14,-1
 677 428 l 2,15,16
 692 428 692 428 703.5 416.5 c 128,-1,17
 715 405 715 405 715 390 c 0,18,19
 715 374 715 374 704 362.5 c 128,-1,20
 693 351 693 351 677 351 c 2,21,-1
 439 353 l 1,22,-1
 440 132 l 2,23,24
 440 116 440 116 429 104.5 c 128,-1,25
 418 93 418 93 402 93 c 128,-1,26
 386 93 386 93 375 104 c 128,-1,27
 364 115 364 115 364 131 c 2,28,-1
 362 354 l 1,29,-1
 127 355 l 2,0,1
EndSplineSet
Validated: 1
EndChar

StartChar: comma
Encoding: 44 44 11
Width: 761
Flags: W
LayerCount: 2
Fore
SplineSet
286 43 m 0,0,1
 270 43 270 43 258.5 54.5 c 128,-1,2
 247 66 247 66 247 82 c 0,3,4
 247 100 247 100 259 110 c 2,5,-1
 419 257 l 2,6,7
 429 267 429 267 445 267 c 0,8,9
 460 267 460 267 471.5 255.5 c 128,-1,10
 483 244 483 244 483 229 c 0,11,12
 483 212 483 212 471 201 c 2,13,-1
 311 53 l 2,14,15
 301 43 301 43 286 43 c 0,0,1
EndSplineSet
Validated: 1
EndChar

StartChar: hyphen
Encoding: 45 45 12
Width: 330
Flags: W
LayerCount: 2
Fore
SplineSet
147 429 m 1,0,-1
 231 429 l 2,1,2
 246 429 246 429 257.5 417.5 c 128,-1,3
 269 406 269 406 269 391 c 128,-1,4
 269 376 269 376 257.5 364 c 128,-1,5
 246 352 246 352 231 352 c 2,6,-1
 148 352 l 1,7,-1
 71 353 l 1,8,-1
 87 354 l 1,9,10
 50 366 50 366 50 389 c 2,11,-1
 50 393 l 1,12,13
 54 423 54 423 100 428 c 1,14,-1
 147 429 l 1,0,-1
EndSplineSet
Validated: 1
EndChar

StartChar: period
Encoding: 46 46 13
Width: 770
Flags: W
LayerCount: 2
Fore
SplineSet
283 168 m 1,0,-1
 426 168 l 1,1,-1
 426 12 l 1,2,-1
 283 12 l 1,3,-1
 283 168 l 1,0,-1
EndSplineSet
Validated: 1
EndChar

StartChar: zero
Encoding: 48 48 14
Width: 778
Flags: W
LayerCount: 2
Fore
SplineSet
297 144 m 1,0,-1
 298 144 l 1,1,2
 316 140 316 140 350 140 c 0,3,4
 394 140 394 140 409 147 c 1,5,-1
 456 217 l 1,6,-1
 477 299 l 1,7,-1
 470 514 l 1,8,-1
 447 592 l 1,9,-1
 413 662 l 2,10,11
 410 664 410 664 404.5 667 c 128,-1,12
 399 670 399 670 394 672 c 2,13,-1
 390 675 l 1,14,-1
 388 676 l 2,15,16
 386 676 386 676 385 676 c 2,17,-1
 383 676 l 2,18,19
 381 675 381 675 380 675 c 0,20,21
 375 674 375 674 367 674 c 2,22,-1
 359 674 l 1,23,24
 353 668 353 668 346 665 c 0,25,26
 304 611 304 611 281 579 c 128,-1,27
 258 547 258 547 233.5 499 c 128,-1,28
 209 451 209 451 202 407 c 0,29,30
 202 406 202 406 202 406 c 1,31,-1
 201 404 l 1,32,33
 189 354 189 354 189 324 c 0,34,35
 189 263 189 263 218.5 217 c 128,-1,36
 248 171 248 171 297 144 c 1,0,-1
366 751 m 0,37,38
 372 752 372 752 385 752 c 128,-1,39
 398 752 398 752 410 748.5 c 128,-1,40
 422 745 422 745 429 741.5 c 128,-1,41
 436 738 436 738 446.5 731 c 128,-1,42
 457 724 457 724 461 722 c 0,43,44
 474 713 474 713 477 706 c 2,45,-1
 518 624 l 2,46,47
 518 623 518 623 519 620 c 128,-1,48
 520 617 520 617 520 616 c 2,49,-1
 545 530 l 2,50,51
 546 527 546 527 546 521 c 2,52,-1
 554 296 l 1,53,-1
 554 295 l 2,54,55
 554 288 554 288 553 285 c 2,56,-1
 528 190 l 2,57,58
 528 188 528 188 523 179 c 2,59,-1
 470 101 l 2,60,61
 458 84 458 84 423 72 c 0,62,63
 383 62 383 62 348 62 c 0,64,65
 312 62 312 62 280 70 c 0,66,67
 234 86 234 86 191 128 c 0,68,69
 114 205 114 205 114 325 c 0,70,71
 114 364 114 364 126 422 c 0,72,73
 137 477 137 477 167 536 c 128,-1,74
 197 595 197 595 218 624.5 c 128,-1,75
 239 654 239 654 288 715 c 0,76,77
 297 726 297 726 301 732 c 0,78,79
 309 748 309 748 338 752 c 1,80,-1
 345 752 l 2,81,82
 349 752 349 752 356 751.5 c 128,-1,83
 363 751 363 751 366 751 c 0,37,38
EndSplineSet
Validated: 1
EndChar

StartChar: one
Encoding: 49 49 15
Width: 774
Flags: W
LayerCount: 2
Fore
SplineSet
578 105 m 128,-1,1
 578 89 578 89 566.5 78.5 c 128,-1,2
 555 68 555 68 539 68 c 2,3,-1
 376 70 l 2,4,5
 367 67 367 67 358 67 c 0,6,7
 350 67 350 67 334 71 c 2,8,-1
 276 72 l 2,9,10
 271 72 271 72 268 73 c 2,11,-1
 178 93 l 2,12,13
 148 102 148 102 148 130 c 0,14,15
 148 146 148 146 159 157.5 c 128,-1,16
 170 169 170 169 186 169 c 0,17,18
 192 169 192 169 205 167 c 128,-1,19
 218 165 218 165 223 165 c 0,20,21
 262 165 262 165 317 154 c 1,22,23
 320 172 320 172 329.5 233.5 c 128,-1,24
 339 295 339 295 343.5 335.5 c 128,-1,25
 348 376 348 376 349 416 c 2,26,-1
 352 538 l 1,27,28
 342 523 342 523 327.5 506.5 c 128,-1,29
 313 490 313 490 302.5 479.5 c 128,-1,30
 292 469 292 469 273.5 452 c 128,-1,31
 255 435 255 435 247 427 c 0,32,33
 236 416 236 416 219 416 c 0,34,35
 204 416 204 416 192.5 427.5 c 128,-1,36
 181 439 181 439 181 454 c 128,-1,37
 181 469 181 469 193 481 c 0,38,39
 201 489 201 489 220.5 507.5 c 128,-1,40
 240 526 240 526 252.5 538 c 128,-1,41
 265 550 265 550 279 567.5 c 128,-1,42
 293 585 293 585 299 600 c 0,43,44
 306 617 306 617 337 668 c 0,45,46
 338 669 338 669 344.5 677.5 c 128,-1,47
 351 686 351 686 357.5 689.5 c 128,-1,48
 364 693 364 693 375 693 c 0,49,50
 398 693 398 693 410 672 c 0,51,52
 415 664 415 664 422 634.5 c 128,-1,53
 429 605 429 605 429 597 c 0,54,55
 429 596 429 596 429.5 593.5 c 128,-1,56
 430 591 430 591 430 589 c 2,57,-1
 426 413 l 1,58,-1
 426 409 l 1,59,-1
 406 228 l 1,60,-1
 404 227 l 1,61,-1
 394 146 l 1,62,-1
 540 144 l 2,63,64
 555 144 555 144 566.5 132.5 c 128,-1,0
 578 121 578 121 578 105 c 128,-1,1
EndSplineSet
Validated: 1
EndChar

StartChar: two
Encoding: 50 50 16
Width: 761
Flags: W
LayerCount: 2
Fore
SplineSet
512 519 m 0,0,1
 512 565 512 565 476.5 595.5 c 128,-1,2
 441 626 441 626 392 626 c 0,3,4
 378 626 378 626 371 625 c 0,5,6
 370 625 370 625 368.5 624.5 c 128,-1,7
 367 624 367 624 366 624 c 2,8,-1
 362 624 l 2,9,10
 301 624 301 624 290 606 c 1,11,-1
 269 537 l 1,12,-1
 281 446 l 1,13,-1
 281 441 l 2,14,15
 281 425 281 425 270 413.5 c 128,-1,16
 259 402 259 402 243 402 c 0,17,18
 228 402 228 402 217 412 c 128,-1,19
 206 422 206 422 204 436 c 2,20,-1
 191 535 l 1,21,-1
 191 540 l 2,22,23
 191 542 191 542 192.5 546 c 128,-1,24
 194 550 194 550 194 551 c 2,25,-1
 218 633 l 1,26,27
 229 655 229 655 239 665 c 0,28,29
 274 700 274 700 359 700 c 2,30,-1
 362 700 l 2,31,32
 382 702 382 702 392 702 c 0,33,34
 473 702 473 702 530.5 649.5 c 128,-1,35
 588 597 588 597 588 518 c 0,36,37
 588 485 588 485 572 443 c 0,38,39
 572 442 572 442 572 442 c 1,40,-1
 571 440 l 2,41,42
 559 417 559 417 531.5 347 c 128,-1,43
 504 277 504 277 480 239 c 1,44,45
 449 174 449 174 365 139 c 1,46,-1
 652 135 l 2,47,48
 667 135 667 135 678.5 123.5 c 128,-1,49
 690 112 690 112 690 97 c 0,50,51
 690 81 690 81 679 69.5 c 128,-1,52
 668 58 668 58 652 58 c 2,53,-1
 336 62 l 2,54,55
 335 62 335 62 333 62.5 c 128,-1,56
 331 63 331 63 330 63 c 2,57,-1
 166 92 l 2,58,59
 134 98 134 98 134 131 c 0,60,61
 134 150 134 150 147.5 161 c 128,-1,62
 161 172 161 172 181 172 c 0,63,64
 204 172 204 172 266 187 c 0,65,66
 353 207 353 207 394 248 c 0,67,68
 406 260 406 260 415 278 c 0,69,70
 436 310 436 310 463.5 380.5 c 128,-1,71
 491 451 491 451 502 473 c 0,72,73
 512 500 512 500 512 519 c 0,0,1
EndSplineSet
Validated: 1
EndChar

StartChar: three
Encoding: 51 51 17
Width: 778
Flags: W
LayerCount: 2
Fore
SplineSet
183 168 m 2,0,1
 183 184 183 184 193.5 195 c 128,-1,2
 204 206 204 206 221 206 c 0,3,4
 239 206 239 206 249 196 c 0,5,6
 257 188 257 188 261 160 c 0,7,8
 262 159 262 159 263 157.5 c 128,-1,9
 264 156 264 156 265.5 155 c 128,-1,10
 267 154 267 154 268 153 c 0,11,12
 306 115 306 115 342 115 c 2,13,-1
 356 116 l 2,14,15
 370 116 370 116 483 127 c 0,16,17
 484 129 484 129 488 134 c 128,-1,18
 492 139 492 139 493 141 c 0,19,20
 497 152 497 152 508.5 174 c 128,-1,21
 520 196 520 196 528 214.5 c 128,-1,22
 536 233 536 233 536 246 c 2,23,-1
 536 258 l 2,24,25
 536 282 536 282 521 297 c 0,26,27
 507 311 507 311 473 326 c 0,28,29
 434 342 434 342 410 360 c 1,30,-1
 315 372 l 2,31,32
 300 373 300 373 291 383.5 c 128,-1,33
 282 394 282 394 282 410 c 128,-1,34
 282 426 282 426 291 435.5 c 128,-1,35
 300 445 300 445 314 447 c 2,36,-1
 365 455 l 1,37,-1
 395 470 l 2,38,39
 403 474 403 474 407 475 c 0,40,41
 446 486 446 486 479.5 517 c 128,-1,42
 513 548 513 548 513 585 c 0,43,44
 513 596 513 596 510 606 c 0,45,46
 494 628 494 628 483 639 c 0,47,48
 441 681 441 681 396 681 c 0,49,50
 391 681 391 681 381 679 c 2,51,-1
 376 679 l 1,52,53
 320 675 320 675 225 599 c 0,54,55
 202 581 202 581 188 581 c 0,56,57
 172 581 172 581 161.5 591.5 c 128,-1,58
 151 602 151 602 151 618 c 0,59,60
 151 638 151 638 165 649 c 0,61,62
 168 652 168 652 185.5 665.5 c 128,-1,63
 203 679 203 679 208.5 683.5 c 128,-1,64
 214 688 214 688 230.5 699.5 c 128,-1,65
 247 711 247 711 255.5 716 c 128,-1,66
 264 721 264 721 280 729.5 c 128,-1,67
 296 738 296 738 308.5 742 c 128,-1,68
 321 746 321 746 336.5 750 c 128,-1,69
 352 754 352 754 368 755 c 0,70,71
 383 758 383 758 397 758 c 0,72,73
 452 758 452 758 500 724 c 128,-1,74
 548 690 548 690 578 643 c 0,75,76
 590 619 590 619 590 586 c 0,77,78
 590 529 590 529 553.5 485 c 128,-1,79
 517 441 517 441 465 416 c 1,80,81
 475 409 475 409 515 390 c 128,-1,82
 555 371 555 371 575 351 c 0,83,84
 611 315 611 315 611 261 c 0,85,86
 612 256 612 256 612 245 c 0,87,88
 612 207 612 207 580 145 c 0,89,90
 577 140 577 140 571.5 128 c 128,-1,91
 566 116 566 116 563.5 110.5 c 128,-1,92
 561 105 561 105 556 96.5 c 128,-1,93
 551 88 551 88 546 81.5 c 128,-1,94
 541 75 541 75 534 68 c 0,95,96
 518 52 518 52 502 52 c 0,97,98
 497 52 497 52 442 45.5 c 128,-1,99
 387 39 387 39 357 39 c 0,100,101
 338 39 338 39 329 40 c 0,102,103
 256 45 256 45 196 119 c 0,104,105
 190 127 190 127 183 162 c 1,106,-1
 183 168 l 2,0,1
EndSplineSet
Validated: 1
EndChar

StartChar: four
Encoding: 52 52 18
Width: 765
Flags: W
LayerCount: 2
Fore
SplineSet
689 324 m 0,0,1
 689 308 689 308 678.5 297 c 128,-1,2
 668 286 668 286 651 286 c 2,3,-1
 646 286 l 2,4,5
 638 287 638 287 621 288.5 c 128,-1,6
 604 290 604 290 596 291 c 1,7,8
 595 232 595 232 587 116 c 0,9,10
 585 101 585 101 575 91 c 128,-1,11
 565 81 565 81 549 81 c 0,12,13
 532 81 532 81 521.5 91.5 c 128,-1,14
 511 102 511 102 511 119 c 2,15,-1
 511 122 l 1,16,17
 517 194 517 194 519 298 c 1,18,19
 353 312 353 312 275 336 c 0,20,21
 266 339 266 339 244 339 c 2,22,-1
 233 339 l 2,23,24
 217 339 217 339 206.5 349.5 c 128,-1,25
 196 360 196 360 196 377 c 0,26,27
 196 386 196 386 198 391 c 2,28,-1
 283 596 l 1,29,-1
 302 738 l 2,30,31
 304 752 304 752 314 761.5 c 128,-1,32
 324 771 324 771 340 771 c 128,-1,33
 356 771 356 771 367 760.5 c 128,-1,34
 378 750 378 750 378 733 c 2,35,-1
 378 728 l 1,36,-1
 357 581 l 2,37,38
 357 577 357 577 355 571 c 2,39,-1
 290 412 l 1,40,41
 366 387 366 387 518 375 c 1,42,43
 518 384 518 384 517 403 c 128,-1,44
 516 422 516 422 515 431 c 2,45,-1
 515 438 l 1,46,-1
 526 553 l 1,47,-1
 511 717 l 1,48,-1
 511 721 l 2,49,50
 511 738 511 738 521.5 748.5 c 128,-1,51
 532 759 532 759 549 759 c 0,52,53
 565 759 565 759 575 749.5 c 128,-1,54
 585 740 585 740 587 725 c 2,55,-1
 603 557 l 1,56,-1
 603 549 l 1,57,-1
 592 434 l 2,58,59
 592 433 592 433 595 369 c 1,60,61
 605 368 605 368 625.5 365 c 128,-1,62
 646 362 646 362 656 361 c 0,63,64
 671 359 671 359 680 349 c 128,-1,65
 689 339 689 339 689 324 c 0,0,1
EndSplineSet
Validated: 1
EndChar

StartChar: five
Encoding: 53 53 19
Width: 790
Flags: W
LayerCount: 2
Fore
SplineSet
205 601 m 0,0,1
 205 685 205 685 264 685 c 0,2,3
 284 685 284 685 308 671 c 1,4,5
 314 673 314 673 319 673 c 2,6,-1
 500 693 l 1,7,-1
 504 693 l 2,8,9
 520 693 520 693 531 682.5 c 128,-1,10
 542 672 542 672 542 655 c 0,11,12
 542 639 542 639 532.5 629 c 128,-1,13
 523 619 523 619 508 617 c 2,14,-1
 330 597 l 2,15,16
 314 593 314 593 299 593 c 0,17,18
 287 593 287 593 282 596 c 1,19,20
 282 585 282 585 283.5 562.5 c 128,-1,21
 285 540 285 540 285 528 c 128,-1,22
 285 516 285 516 280 489 c 128,-1,23
 275 462 275 462 275 449 c 0,24,25
 275 438 275 438 279 416 c 1,26,27
 288 420 288 420 306 429.5 c 128,-1,28
 324 439 324 439 334 443.5 c 128,-1,29
 344 448 344 448 361 452 c 128,-1,30
 378 456 378 456 397 456 c 2,31,-1
 403 456 l 1,32,33
 427 452 427 452 455 434 c 0,34,35
 479 419 479 419 492 419 c 2,36,-1
 501 419 l 1,37,38
 539 415 539 415 560 381.5 c 128,-1,39
 581 348 581 348 581 304 c 0,40,41
 581 268 581 268 566 239 c 0,42,43
 551 209 551 209 538 187.5 c 128,-1,44
 525 166 525 166 501.5 137.5 c 128,-1,45
 478 109 478 109 447 93 c 128,-1,46
 416 77 416 77 381 77 c 0,47,48
 348 77 348 77 306 99 c 0,49,50
 278 113 278 113 271 114 c 0,51,52
 237 119 237 119 237 152 c 0,53,54
 237 168 237 168 247.5 178.5 c 128,-1,55
 258 189 258 189 274 189 c 2,56,-1
 278 189 l 2,57,58
 305 187 305 187 341 168 c 0,59,60
 369 153 369 153 382 153 c 0,61,62
 410 153 410 153 437 180 c 0,63,64
 466 209 466 209 499 275 c 0,65,66
 504 285 504 285 504 306 c 0,67,68
 504 336 504 336 493 342 c 1,69,70
 460 342 460 342 415 369 c 0,71,72
 402 377 402 377 393 379 c 0,73,74
 367 377 367 377 357 370 c 0,75,76
 342 359 342 359 321 350 c 0,77,78
 318 349 318 349 313 347 c 128,-1,79
 308 345 308 345 305 343.5 c 128,-1,80
 302 342 302 342 298 340.5 c 128,-1,81
 294 339 294 339 292 337.5 c 128,-1,82
 290 336 290 336 288.5 334 c 128,-1,83
 287 332 287 332 287 330 c 0,84,85
 278 302 278 302 250 302 c 0,86,87
 234 302 234 302 223 313 c 128,-1,88
 212 324 212 324 212 340 c 128,-1,89
 212 356 212 356 205.5 391.5 c 128,-1,90
 199 427 199 427 199 447 c 0,91,92
 199 460 199 460 203 486.5 c 128,-1,93
 207 513 207 513 207 531 c 0,94,95
 207 542 207 542 206 566 c 128,-1,96
 205 590 205 590 205 601 c 0,0,1
EndSplineSet
Validated: 1
EndChar

StartChar: six
Encoding: 54 54 20
Width: 782
Flags: W
LayerCount: 2
Fore
SplineSet
222 418 m 2,0,-1
 222 409 l 2,1,2
 220 397 220 397 220 373 c 0,3,4
 220 260 220 260 300 180 c 2,5,-1
 317 163 l 2,6,7
 319 161 319 161 329 150.5 c 128,-1,8
 339 140 339 140 345.5 133.5 c 128,-1,9
 352 127 352 127 361.5 119 c 128,-1,10
 371 111 371 111 379 107 c 128,-1,11
 387 103 387 103 393 103 c 2,12,-1
 407 103 l 2,13,14
 425 103 425 103 452 119 c 0,15,16
 456 121 456 121 462 123 c 0,17,18
 484 128 484 128 498.5 148 c 128,-1,19
 513 168 513 168 517.5 187 c 128,-1,20
 522 206 522 206 527 240 c 0,21,22
 529 256 529 256 529 264 c 0,23,24
 529 341 529 341 482 341 c 0,25,26
 479 341 479 341 467 339 c 0,27,28
 396 324 396 324 305 319 c 1,29,30
 294 298 294 298 270 298 c 0,31,32
 254 298 254 298 243 309 c 128,-1,33
 232 320 232 320 232 336 c 2,34,-1
 232 343 l 1,35,36
 238 375 238 375 247 384 c 0,37,38
 257 394 257 394 273 394 c 0,39,40
 352 396 352 396 451 415 c 0,41,42
 466 418 466 418 482 418 c 0,43,44
 529 418 529 418 558 389.5 c 128,-1,45
 587 361 587 361 599 318 c 0,46,47
 606 294 606 294 606 264 c 0,48,49
 606 245 606 245 603 227 c 0,50,51
 582 79 582 79 486 50 c 1,52,53
 444 27 444 27 407 27 c 0,54,55
 378 27 378 27 353.5 37 c 128,-1,56
 329 47 329 47 318 55.5 c 128,-1,57
 307 64 307 64 285 86.5 c 128,-1,58
 263 109 263 109 257 115 c 0,59,60
 255 116 255 116 253.5 118 c 128,-1,61
 252 120 252 120 249.5 122.5 c 128,-1,62
 247 125 247 125 246 126 c 0,63,64
 143 229 143 229 143 373 c 0,65,66
 143 400 143 400 145 414 c 0,67,68
 143 442 143 442 143 457 c 0,69,70
 143 607 143 607 228 692 c 0,71,72
 277 741 277 741 342 751 c 1,73,-1
 350 751 l 2,74,75
 414 748 414 748 562 726 c 0,76,77
 576 724 576 724 585.5 714 c 128,-1,78
 595 704 595 704 595 688 c 128,-1,79
 595 672 595 672 584.5 661 c 128,-1,80
 574 650 574 650 557 650 c 0,81,82
 552 650 552 650 540 652 c 0,83,84
 416 670 416 670 350 674 c 1,85,86
 312 667 312 667 283 638 c 128,-1,87
 254 609 254 609 237 560.5 c 128,-1,88
 220 512 220 512 220 456 c 0,89,90
 220 442 220 442 222 418 c 2,0,-1
EndSplineSet
Validated: 1
EndChar

StartChar: seven
Encoding: 55 55 21
Width: 778
Flags: W
LayerCount: 2
Fore
SplineSet
130 650 m 2,0,1
 114 650 114 650 103.5 661 c 128,-1,2
 93 672 93 672 93 688 c 128,-1,3
 93 704 93 704 103.5 715 c 128,-1,4
 114 726 114 726 131 726 c 2,5,-1
 636 718 l 2,6,7
 652 718 652 718 662.5 707 c 128,-1,8
 673 696 673 696 673 680 c 0,9,10
 673 666 673 666 668 659 c 2,11,-1
 492 384 l 1,12,-1
 608 352 l 2,13,14
 636 343 636 343 636 315 c 0,15,16
 636 299 636 299 625.5 288.5 c 128,-1,17
 615 278 615 278 598 278 c 0,18,19
 591 278 591 278 588 279 c 2,20,-1
 447 316 l 1,21,-1
 311 102 l 2,22,23
 301 85 301 85 279 85 c 0,24,25
 262 85 262 85 251.5 95.5 c 128,-1,26
 241 106 241 106 241 123 c 0,27,28
 241 136 241 136 246 143 c 2,29,-1
 371 338 l 1,30,-1
 272 365 l 2,31,32
 245 373 245 373 245 401 c 0,33,34
 245 418 245 418 255.5 428.5 c 128,-1,35
 266 439 266 439 283 439 c 0,36,37
 290 439 290 439 293 438 c 2,38,-1
 414 406 l 1,39,-1
 565 643 l 1,40,-1
 130 650 l 2,0,1
EndSplineSet
Validated: 1
EndChar

StartChar: eight
Encoding: 56 56 22
Width: 765
Flags: W
LayerCount: 2
Fore
SplineSet
378 139 m 128,-1,1
 416 139 416 139 430.5 145 c 128,-1,2
 445 151 445 151 465 171 c 0,3,4
 489 195 489 195 495 206 c 1,5,6
 489 232 489 232 463 270 c 0,7,8
 439 304 439 304 391 352 c 0,9,10
 387 353 387 353 384 356 c 128,-1,11
 381 359 381 359 377 363 c 128,-1,12
 373 367 373 367 371 368 c 0,13,14
 339 340 339 340 324 325 c 0,15,16
 260 261 260 261 260 187 c 2,17,-1
 260 186 l 2,18,19
 260 177 260 177 267 170 c 0,20,21
 281 156 281 156 309 148 c 0,22,0
 340 139 340 139 378 139 c 128,-1,1
183 186 m 2,23,-1
 183 187 l 2,24,25
 183 293 183 293 269 379 c 0,26,27
 282 392 282 392 312 418 c 1,28,-1
 279 449 l 2,29,30
 278 449 278 449 276 451 c 0,31,32
 270 457 270 457 247 470 c 0,33,34
 212 490 212 490 198 504 c 0,35,36
 167 535 167 535 167 580 c 0,37,38
 167 588 167 588 169 603.5 c 128,-1,39
 171 619 171 619 171 625 c 0,40,41
 171 650 171 650 189 668 c 0,42,43
 228 707 228 707 362 719 c 0,44,45
 366 719 366 719 376.5 720.5 c 128,-1,46
 387 722 387 722 394 722 c 0,47,48
 445 722 445 722 483.5 689 c 128,-1,49
 522 656 522 656 526 607 c 1,50,-1
 526 604 l 2,51,52
 526 559 526 559 501 512 c 0,53,54
 480 472 480 472 430 422 c 1,55,56
 496 354 496 354 525 314 c 0,57,58
 560 265 560 265 570 220 c 0,59,60
 571 216 571 216 571 206 c 0,61,62
 571 172 571 172 541 140 c 0,63,64
 497 92 497 92 468 79 c 0,65,66
 431 62 431 62 378 62 c 0,67,68
 330 62 330 62 288 73 c 128,-1,69
 246 84 246 84 214.5 113.5 c 128,-1,70
 183 143 183 143 183 186 c 2,23,-1
393 645 m 0,71,72
 390 645 390 645 386.5 644.5 c 128,-1,73
 383 644 383 644 379.5 643 c 128,-1,74
 376 642 376 642 372 642 c 0,75,76
 272 630 272 630 248 616 c 0,77,78
 248 612 248 612 246 598.5 c 128,-1,79
 244 585 244 585 244 580 c 0,80,81
 244 566 244 566 252 558 c 0,82,83
 262 548 262 548 290 533 c 128,-1,84
 318 518 318 518 330 506 c 2,85,-1
 355 483 l 1,86,-1
 357 483 l 2,87,88
 368 483 368 483 377 477 c 1,89,90
 414 514 414 514 433 549 c 0,91,92
 450 581 450 581 450 603 c 0,93,94
 448 621 448 621 430.5 633 c 128,-1,95
 413 645 413 645 393 645 c 0,71,72
EndSplineSet
Validated: 1
EndChar

StartChar: nine
Encoding: 57 57 23
Width: 786
Flags: W
LayerCount: 2
Fore
SplineSet
365 638 m 2,0,1
 359 638 359 638 345 641.5 c 128,-1,2
 331 645 331 645 327 645 c 0,3,4
 313 645 313 645 302 634 c 0,5,6
 273 605 273 605 267 534 c 0,7,8
 266 525 266 525 262.5 501 c 128,-1,9
 259 477 259 477 259 463 c 0,10,11
 259 419 259 419 301 386 c 128,-1,12
 343 353 343 353 389 353 c 0,13,14
 395 353 395 353 440.5 369.5 c 128,-1,15
 486 386 486 386 497 386 c 0,16,17
 514 386 514 386 524.5 375.5 c 128,-1,18
 535 365 535 365 535 348 c 0,19,20
 535 332 535 332 524 321 c 0,21,22
 520 317 520 317 500 307 c 0,23,24
 491 302 491 302 448.5 290 c 128,-1,25
 406 278 406 278 389 278 c 0,26,27
 309 278 309 278 246 331 c 128,-1,28
 183 384 183 384 183 463 c 0,29,30
 183 481 183 481 186.5 506.5 c 128,-1,31
 190 532 190 532 191 540 c 0,32,33
 198 638 198 638 248 688 c 0,34,35
 282 722 282 722 327 722 c 0,36,37
 346 722 346 722 370 715 c 0,38,39
 377 716 377 716 391 716 c 0,40,41
 509 716 509 716 566 592 c 1,42,43
 582 568 582 568 589.5 556 c 128,-1,44
 597 544 597 544 605.5 519 c 128,-1,45
 614 494 614 494 615 468 c 2,46,-1
 615 464 l 2,47,48
 614 456 614 456 614 437 c 0,49,50
 614 423 614 423 628 308 c 1,51,-1
 628 303 l 2,52,53
 628 245 628 245 618 197 c 128,-1,54
 608 149 608 149 586.5 109 c 128,-1,55
 565 69 565 69 526 46.5 c 128,-1,56
 487 24 487 24 434 24 c 0,57,58
 359 24 359 24 324 36 c 0,59,60
 284 50 284 50 247 87 c 0,61,62
 146 188 146 188 106 255 c 0,63,64
 101 262 101 262 101 274 c 0,65,66
 101 291 101 291 111.5 301.5 c 128,-1,67
 122 312 122 312 139 312 c 0,68,69
 161 312 161 312 172 294 c 0,70,71
 207 237 207 237 302 142 c 0,72,73
 328 116 328 116 350 109 c 0,74,75
 376 99 376 99 434 99 c 0,76,77
 478 99 478 99 505 126 c 0,78,79
 552 173 552 173 552 301 c 0,80,81
 551 314 551 314 546.5 342 c 128,-1,82
 542 370 542 370 540 392 c 128,-1,83
 538 414 538 414 538 436 c 128,-1,84
 538 458 538 458 539 468 c 0,85,86
 539 473 539 473 538 478.5 c 128,-1,87
 537 484 537 484 536.5 487.5 c 128,-1,88
 536 491 536 491 533.5 496.5 c 128,-1,89
 531 502 531 502 530.5 504 c 128,-1,90
 530 506 530 506 525.5 513 c 128,-1,91
 521 520 521 520 520 521.5 c 128,-1,92
 519 523 519 523 513.5 531.5 c 128,-1,93
 508 540 508 540 507 542 c 128,-1,94
 506 544 506 544 504 547 c 128,-1,95
 502 550 502 550 500.5 552.5 c 128,-1,96
 499 555 499 555 498 557 c 0,97,98
 483 591 483 591 462 612 c 0,99,100
 435 639 435 639 391 639 c 0,101,102
 377 639 377 639 369 638 c 2,103,-1
 365 638 l 2,0,1
EndSplineSet
Validated: 1
EndChar

StartChar: colon
Encoding: 58 58 24
Width: 774
Flags: W
LayerCount: 2
Fore
SplineSet
336 700 m 1,0,-1
 459 700 l 1,1,-1
 459 537 l 1,2,-1
 336 537 l 1,3,-1
 336 700 l 1,0,-1
332 297 m 1,4,-1
 465 299 l 1,5,-1
 465 129 l 1,6,-1
 332 127 l 1,7,-1
 332 297 l 1,4,-1
EndSplineSet
Validated: 1
EndChar

StartChar: less
Encoding: 60 60 25
Width: 782
Flags: W
LayerCount: 2
Fore
SplineSet
603 609 m 0,0,1
 618 609 618 609 629.5 597.5 c 128,-1,2
 641 586 641 586 641 571 c 0,3,4
 641 545 641 545 617 536 c 2,5,-1
 287 401 l 1,6,-1
 631 246 l 2,7,8
 653 235 653 235 653 211 c 0,9,10
 653 195 653 195 642 183.5 c 128,-1,11
 631 172 631 172 615 172 c 0,12,13
 609 172 609 172 599 176 c 2,14,-1
 173 369 l 2,15,16
 151 379 151 379 151 403 c 0,17,18
 151 430 151 430 175 439 c 2,19,-1
 589 607 l 2,20,21
 594 609 594 609 603 609 c 0,0,1
EndSplineSet
Validated: 1
EndChar

StartChar: equal
Encoding: 61 61 26
Width: 778
Flags: W
LayerCount: 2
Fore
SplineSet
689 500 m 128,-1,1
 689 485 689 485 678 473 c 128,-1,2
 667 461 667 461 652 461 c 1,3,-1
 651 462 l 1,4,-1
 138 470 l 2,5,6
 123 470 123 470 112 481.5 c 128,-1,7
 101 493 101 493 101 508 c 128,-1,8
 101 523 101 523 112.5 534.5 c 128,-1,9
 124 546 124 546 139 546 c 2,10,-1
 652 538 l 2,11,12
 667 538 667 538 678 526.5 c 128,-1,0
 689 515 689 515 689 500 c 128,-1,1
659 284 m 2,13,14
 674 284 674 284 685.5 272.5 c 128,-1,15
 697 261 697 261 697 246 c 128,-1,16
 697 231 697 231 685.5 219.5 c 128,-1,17
 674 208 674 208 659 208 c 2,18,-1
 119 204 l 2,19,20
 104 204 104 204 92.5 215.5 c 128,-1,21
 81 227 81 227 81 242 c 128,-1,22
 81 257 81 257 92.5 268.5 c 128,-1,23
 104 280 104 280 119 280 c 2,24,-1
 659 284 l 2,13,14
EndSplineSet
Validated: 1
EndChar

StartChar: greater
Encoding: 62 62 27
Width: 774
Flags: W
LayerCount: 2
Fore
SplineSet
126 586 m 0,0,1
 126 601 126 601 137.5 612.5 c 128,-1,2
 149 624 149 624 164 624 c 0,3,4
 173 624 173 624 177 622 c 2,5,-1
 624 454 l 2,6,7
 648 445 648 445 648 418 c 128,-1,8
 648 391 648 391 626 383 c 2,9,-1
 163 182 l 2,10,11
 156 179 156 179 147 179 c 0,12,13
 132 179 132 179 121 190.5 c 128,-1,14
 110 202 110 202 110 217 c 0,15,16
 110 244 110 244 132 252 c 2,17,-1
 508 416 l 1,18,-1
 151 550 l 2,19,20
 126 560 126 560 126 586 c 0,0,1
EndSplineSet
Validated: 1
EndChar

StartChar: question
Encoding: 63 63 28
Width: 778
Flags: W
LayerCount: 2
Fore
SplineSet
507 631 m 0,0,1
 507 663 507 663 493 685.5 c 128,-1,2
 479 708 479 708 452 708 c 0,3,4
 436 708 436 708 412 696 c 0,5,6
 377 679 377 679 346 643 c 0,7,8
 298 585 298 585 265 539 c 0,9,10
 253 523 253 523 234 523 c 0,11,12
 218 523 218 523 207 534 c 128,-1,13
 196 545 196 545 196 561 c 0,14,15
 196 573 196 573 204 584 c 0,16,17
 252 650 252 650 287 692 c 0,18,19
 331 743 331 743 378 766 c 0,20,21
 416 784 416 784 452 784 c 0,22,23
 512 784 512 784 548 738 c 128,-1,24
 584 692 584 692 584 631 c 0,25,26
 584 483 584 483 498 397 c 0,27,28
 486 385 486 385 457.5 361 c 128,-1,29
 429 337 429 337 416 324 c 0,30,31
 400 308 400 308 396 302 c 128,-1,32
 392 296 392 296 391 295 c 2,33,-1
 391 293 l 2,34,35
 391 282 391 282 408 248 c 0,36,37
 416 234 416 234 416 221 c 0,38,39
 416 205 416 205 405 194 c 128,-1,40
 394 183 394 183 378 183 c 128,-1,41
 362 183 362 183 350 195 c 0,42,43
 348 197 348 197 339 213 c 0,44,45
 314 263 314 263 314 292 c 0,46,47
 314 315 314 315 330 341 c 0,48,49
 348 367 348 367 420 431 c 0,50,51
 442 451 442 451 443 452 c 0,52,53
 505 514 505 514 507 631 c 0,0,1
374 82 m 128,-1,55
 374 97 374 97 386 108 c 128,-1,56
 398 119 398 119 415 119 c 128,-1,57
 432 119 432 119 444 108 c 128,-1,58
 456 97 456 97 456 82 c 128,-1,59
 456 67 456 67 444 56 c 128,-1,60
 432 45 432 45 415 45 c 128,-1,61
 398 45 398 45 386 56 c 128,-1,54
 374 67 374 67 374 82 c 128,-1,55
EndSplineSet
Validated: 1
EndChar

StartChar: bracketleft
Encoding: 91 91 29
Width: 770
Flags: W
LayerCount: 2
Fore
SplineSet
495 719 m 2,0,1
 512 719 512 719 523 708 c 128,-1,2
 534 697 534 697 534 681 c 128,-1,3
 534 665 534 665 523 654 c 128,-1,4
 512 643 512 643 496 643 c 2,5,-1
 324 639 l 1,6,-1
 309 115 l 1,7,-1
 481 121 l 1,8,-1
 482 121 l 2,9,10
 499 121 499 121 510 110 c 128,-1,11
 521 99 521 99 521 83 c 128,-1,12
 521 67 521 67 510 56 c 128,-1,13
 499 45 499 45 484 45 c 2,14,-1
 271 37 l 1,15,-1
 269 37 l 2,16,17
 253 37 253 37 242 48 c 128,-1,18
 231 59 231 59 231 75 c 2,19,-1
 231 76 l 1,20,-1
 248 678 l 2,21,22
 248 693 248 693 259.5 704 c 128,-1,23
 271 715 271 715 286 715 c 2,24,-1
 495 719 l 2,0,1
EndSplineSet
Validated: 1
EndChar

StartChar: backslash
Encoding: 92 92 30
Width: 757
Flags: W
LayerCount: 2
Fore
SplineSet
673 87 m 128,-1,1
 673 71 673 71 662 60 c 128,-1,2
 651 49 651 49 635 49 c 0,3,4
 617 49 617 49 606 62 c 2,5,-1
 111 624 l 2,6,7
 101 636 101 636 101 648 c 0,8,9
 101 665 101 665 112 676 c 128,-1,10
 123 687 123 687 139 687 c 0,11,12
 157 687 157 687 168 674 c 2,13,-1
 664 113 l 2,14,0
 673 103 673 103 673 87 c 128,-1,1
EndSplineSet
Validated: 1
EndChar

StartChar: bracketright
Encoding: 93 93 31
Width: 774
Flags: W
LayerCount: 2
Fore
SplineSet
273 106 m 0,0,1
 273 123 273 123 284 134 c 128,-1,2
 295 145 295 145 311 145 c 2,3,-1
 425 145 l 1,4,-1
 428 581 l 1,5,-1
 315 581 l 2,6,7
 299 581 299 581 288.5 591.5 c 128,-1,8
 278 602 278 602 278 618 c 0,9,10
 278 635 278 635 288.5 646 c 128,-1,11
 299 657 299 657 315 657 c 2,12,-1
 467 657 l 2,13,14
 483 657 483 657 494 646 c 128,-1,15
 505 635 505 635 505 618 c 2,16,-1
 501 106 l 2,17,18
 501 90 501 90 490 79.5 c 128,-1,19
 479 69 479 69 463 69 c 2,20,-1
 311 69 l 2,21,22
 295 69 295 69 284 79.5 c 128,-1,23
 273 90 273 90 273 106 c 0,0,1
EndSplineSet
Validated: 1
EndChar

StartChar: asciicircum
Encoding: 94 94 32
Width: 765
Flags: W
LayerCount: 2
Fore
SplineSet
714 414 m 0,0,1
 714 398 714 398 703 387 c 128,-1,2
 692 376 692 376 676 376 c 0,3,4
 658 376 658 376 648 387 c 2,5,-1
 393 653 l 1,6,-1
 138 394 l 2,7,8
 128 384 128 384 111 384 c 128,-1,9
 94 384 94 384 83.5 395 c 128,-1,10
 73 406 73 406 73 422 c 0,11,12
 73 439 73 439 83 449 c 2,13,-1
 366 736 l 2,14,15
 376 746 376 746 393 746 c 0,16,17
 411 746 411 746 421 735 c 2,18,-1
 703 440 l 2,19,20
 714 429 714 429 714 414 c 0,0,1
EndSplineSet
Validated: 1
EndChar

StartChar: a
Encoding: 97 97 33
Width: 1024
Flags: W
LayerCount: 2
Fore
SplineSet
113 68 m 1,0,-1
 80 69 l 1,1,2
 82 178 82 178 96.5 275.5 c 128,-1,3
 111 373 111 373 144 462 c 128,-1,4
 177 551 177 551 224.5 615.5 c 128,-1,5
 272 680 272 680 345 718 c 128,-1,6
 418 756 418 756 508 756 c 2,7,-1
 509 756 l 2,8,9
 601 756 601 756 675.5 718.5 c 128,-1,10
 750 681 750 681 800 619 c 128,-1,11
 850 557 850 557 886.5 468 c 128,-1,12
 923 379 923 379 942.5 284.5 c 128,-1,13
 962 190 962 190 972 80 c 1,14,-1
 939 77 l 1,15,-1
 906 75 l 1,16,17
 854 652 854 652 546 687 c 1,18,-1
 555 81 l 1,19,-1
 521 80 l 1,20,-1
 488 80 l 1,21,-1
 479 688 l 1,22,23
 396 681 396 681 332.5 631 c 128,-1,24
 269 581 269 581 229.5 497.5 c 128,-1,25
 190 414 190 414 169 306 c 128,-1,26
 148 198 148 198 146 68 c 1,27,-1
 113 68 l 1,0,-1
EndSplineSet
Validated: 1
EndChar

StartChar: b
Encoding: 98 98 34
Width: 1024
Flags: W
LayerCount: 2
Fore
SplineSet
139 58 m 0,0,1
 123 58 123 58 110.5 70.5 c 128,-1,2
 98 83 98 83 98 99 c 2,3,-1
 98 101 l 1,4,-1
 122 545 l 2,5,6
 123 557 123 557 136 589 c 0,7,8
 170 652 170 652 254 671 c 0,9,10
 268 674 268 674 279 674 c 0,11,12
 322 674 322 674 358 645.5 c 128,-1,13
 394 617 394 617 417 575 c 1,14,15
 419 578 419 578 422.5 583.5 c 128,-1,16
 426 589 426 589 428 592 c 0,17,18
 476 659 476 659 525.5 689.5 c 128,-1,19
 575 720 575 720 647 720 c 0,20,21
 748 720 748 720 809 676 c 0,22,23
 889 618 889 618 915 558 c 128,-1,24
 941 498 941 498 941 417 c 0,25,26
 941 400 941 400 940 365 c 128,-1,27
 939 330 939 330 939 311 c 0,28,29
 939 282 939 282 936.5 211 c 128,-1,30
 934 140 934 140 934 98 c 2,31,-1
 934 42 l 1,32,33
 923 42 923 42 901.5 41 c 128,-1,34
 880 40 880 40 869 40 c 1,35,36
 867 88 867 88 867 107 c 0,37,38
 867 155 867 155 870 226.5 c 128,-1,39
 873 298 873 298 873 324 c 0,40,41
 873 344 873 344 874.5 378.5 c 128,-1,42
 876 413 876 413 876 429 c 0,43,44
 876 489 876 489 855 534 c 128,-1,45
 834 579 834 579 770 623 c 0,46,47
 730 651 730 651 651 651 c 0,48,49
 593 651 593 651 556 628 c 128,-1,50
 519 605 519 605 482 553 c 0,51,52
 458 517 458 517 451 478 c 1,53,-1
 442 479 l 1,54,55
 449 421 449 421 449 301 c 0,56,57
 449 246 449 246 446.5 151.5 c 128,-1,58
 444 57 444 57 444 52 c 1,59,60
 433 52 433 52 411.5 53 c 128,-1,61
 390 54 390 54 379 54 c 1,62,63
 382 231 382 231 382 296 c 0,64,65
 382 448 382 448 369 510 c 0,66,67
 361 547 361 547 331.5 577 c 128,-1,68
 302 607 302 607 276 607 c 0,69,70
 270 607 270 607 268 606 c 0,71,72
 228 597 228 597 195 518 c 1,73,-1
 173 110 l 2,74,75
 176 102 176 102 176 95 c 0,76,77
 176 80 176 80 165 69 c 128,-1,78
 154 58 154 58 139 58 c 0,0,1
EndSplineSet
Validated: 1
EndChar

StartChar: c
Encoding: 99 99 35
Width: 1024
Flags: W
LayerCount: 2
Fore
SplineSet
760 725 m 1,0,-1
 727 722 l 2,1,2
 726 725 726 725 726 728 c 0,3,4
 726 760 726 760 754 760 c 0,5,6
 758 760 758 760 768 758 c 0,7,8
 799 751 799 751 831.5 629.5 c 128,-1,9
 864 508 864 508 864 378 c 0,10,11
 864 292 864 292 849 229 c 0,12,13
 831 150 831 150 790 99 c 0,14,15
 718 6 718 6 572 6 c 0,16,17
 474 6 474 6 334 52 c 0,18,19
 332 52 332 52 327.5 54 c 128,-1,20
 323 56 323 56 321 56 c 1,21,-1
 343 120 l 1,22,23
 345 119 345 119 348.5 117.5 c 128,-1,24
 352 116 352 116 354 116 c 0,25,26
 478 74 478 74 570 74 c 0,27,28
 685 74 685 74 736 140 c 0,29,30
 796 216 796 216 796 360 c 0,31,32
 796 459 796 459 773 561.5 c 128,-1,33
 750 664 750 664 732 708 c 1,34,-1
 760 725 l 1,0,-1
EndSplineSet
Validated: 1
EndChar

StartChar: d
Encoding: 100 100 36
Width: 1024
Flags: W
LayerCount: 2
Fore
SplineSet
184 672 m 1,0,-1
 216 681 l 1,1,2
 272 495 272 495 467 473 c 1,3,-1
 467 710 l 1,4,5
 467 710 467 710 534 710 c 1,6,-1
 534 476 l 1,7,8
 673 502 673 502 739 625 c 0,9,10
 754 653 754 653 761 679 c 1,11,-1
 793 671 l 1,12,-1
 824 662 l 1,13,14
 787 522 787 522 653 447 c 0,15,16
 597 417 597 417 535 409 c 1,17,-1
 535 89 l 1,18,19
 535 89 535 89 468 89 c 1,20,-1
 468 407 l 1,21,22
 326 413 326 413 225 526 c 0,23,24
 174 583 174 583 153 664 c 1,25,-1
 184 672 l 1,0,-1
EndSplineSet
Validated: 1
EndChar

StartChar: e
Encoding: 101 101 37
Width: 1024
Flags: W
LayerCount: 2
Fore
SplineSet
500 435 m 1,0,1
 490 431 490 431 469 422.5 c 128,-1,2
 448 414 448 414 438 409 c 1,3,-1
 317 687 l 1,4,5
 327 691 327 691 348 700 c 128,-1,6
 369 709 369 709 379 714 c 1,7,-1
 500 435 l 1,0,1
549 710 m 1,8,9
 559 714 559 714 579.5 722.5 c 128,-1,10
 600 731 600 731 610 736 c 1,11,-1
 901 99 l 1,12,13
 891 95 891 95 870.5 86.5 c 128,-1,14
 850 78 850 78 840 73 c 1,15,-1
 549 710 l 1,8,9
53 685 m 1,16,17
 63 689 63 689 84 697.5 c 128,-1,18
 105 706 105 706 115 710 c 1,19,-1
 358 104 l 1,20,21
 348 100 348 100 327.5 92 c 128,-1,22
 307 84 307 84 297 80 c 1,23,-1
 53 685 l 1,16,17
EndSplineSet
Validated: 1
EndChar

StartChar: f
Encoding: 102 102 38
Width: 1024
Flags: W
LayerCount: 2
Fore
SplineSet
106 256 m 1,0,-1
 106 289 l 1,1,2
 106 289 106 289 144 287 c 0,3,4
 181 285 181 285 213 285 c 0,5,6
 406 285 406 285 522 364 c 0,7,8
 586 407 586 407 629.5 461.5 c 128,-1,9
 673 516 673 516 691 568 c 128,-1,10
 709 620 709 620 715.5 655 c 128,-1,11
 722 690 722 690 722 720 c 0,12,13
 722 725 722 725 722 729.5 c 128,-1,14
 722 734 722 734 721.5 736.5 c 128,-1,15
 721 739 721 739 721 740 c 2,16,-1
 754 745 l 1,17,-1
 786 751 l 1,18,19
 786 750 786 750 786.5 745.5 c 128,-1,20
 787 741 787 741 787.5 734 c 128,-1,21
 788 727 788 727 788 720 c 0,22,23
 788 692 788 692 784.5 661 c 128,-1,24
 781 630 781 630 766.5 582.5 c 128,-1,25
 752 535 752 535 729 491 c 128,-1,26
 706 447 706 447 662 397.5 c 128,-1,27
 618 348 618 348 559 308 c 0,28,29
 424 217 424 217 213 217 c 0,30,31
 188 217 188 217 163 218.5 c 128,-1,32
 138 220 138 220 123 221.5 c 128,-1,33
 108 223 108 223 106 223 c 1,34,-1
 106 256 l 1,0,-1
92 98 m 1,35,-1
 97 131 l 1,36,-1
 102 130 l 2,37,38
 106 130 106 130 115 129 c 128,-1,39
 124 128 124 128 135.5 127 c 128,-1,40
 147 126 147 126 162.5 124.5 c 128,-1,41
 178 123 178 123 195 122 c 128,-1,42
 212 121 212 121 233 120.5 c 128,-1,43
 254 120 254 120 275 120 c 0,44,45
 548 120 548 120 688 216 c 0,46,47
 744 254 744 254 784.5 320.5 c 128,-1,48
 825 387 825 387 844 447.5 c 128,-1,49
 863 508 863 508 873.5 582.5 c 128,-1,50
 884 657 884 657 885.5 688.5 c 128,-1,51
 887 720 887 720 887 751 c 2,52,-1
 887 752 l 1,53,-1
 920 752 l 1,54,-1
 952 752 l 1,55,56
 952 751 952 751 952.5 745 c 128,-1,57
 953 739 953 739 953 734 c 0,58,59
 953 695 953 695 950.5 654.5 c 128,-1,60
 948 614 948 614 935 539 c 128,-1,61
 922 464 922 464 899.5 401 c 128,-1,62
 877 338 877 338 832 270.5 c 128,-1,63
 787 203 787 203 725 161 c 0,64,65
 563 51 563 51 282 51 c 0,66,67
 232 51 232 51 183.5 54.5 c 128,-1,68
 135 58 135 58 111 62 c 2,69,-1
 87 66 l 1,70,-1
 92 98 l 1,35,-1
EndSplineSet
Validated: 1
EndChar

StartChar: g
Encoding: 103 103 39
Width: 1024
Flags: W
LayerCount: 2
Fore
SplineSet
373 384 m 128,-1,1
 373 431 373 431 406.5 464.5 c 128,-1,2
 440 498 440 498 486 498 c 128,-1,3
 532 498 532 498 566 464 c 128,-1,4
 600 430 600 430 600 384 c 128,-1,5
 600 338 600 338 566 304 c 128,-1,6
 532 270 532 270 486 270 c 128,-1,7
 440 270 440 270 406.5 303.5 c 128,-1,0
 373 337 373 337 373 384 c 128,-1,1
160 387 m 128,-1,9
 160 278 160 278 257 197.5 c 128,-1,10
 354 117 354 117 493 117 c 128,-1,11
 632 117 632 117 728.5 197 c 128,-1,12
 825 277 825 277 825 387 c 128,-1,13
 825 497 825 497 728.5 577 c 128,-1,14
 632 657 632 657 493 657 c 128,-1,15
 354 657 354 657 257 576.5 c 128,-1,8
 160 496 160 496 160 387 c 128,-1,9
94 387 m 128,-1,17
 94 529 94 529 212 627 c 128,-1,18
 330 725 330 725 493 725 c 128,-1,19
 656 725 656 725 773.5 627 c 128,-1,20
 891 529 891 529 891 387 c 128,-1,21
 891 245 891 245 773.5 147 c 128,-1,22
 656 49 656 49 493 49 c 128,-1,23
 330 49 330 49 212 147 c 128,-1,16
 94 245 94 245 94 387 c 128,-1,17
EndSplineSet
Validated: 1
EndChar

StartChar: i
Encoding: 105 105 40
Width: 1024
Flags: W
LayerCount: 2
Fore
SplineSet
873 53 m 0,0,1
 873 36 873 36 862.5 26 c 128,-1,2
 852 16 852 16 836 16 c 0,3,4
 812 16 812 16 802 36 c 2,5,-1
 521 609 l 1,6,-1
 262 37 l 2,7,8
 252 16 252 16 228 16 c 0,9,10
 212 16 212 16 201.5 26 c 128,-1,11
 191 36 191 36 191 53 c 0,12,13
 191 62 191 62 194 69 c 2,14,-1
 486 713 l 2,15,16
 496 734 496 734 520 734 c 128,-1,17
 544 734 544 734 554 714 c 2,18,-1
 870 70 l 2,19,20
 873 65 873 65 873 53 c 0,0,1
EndSplineSet
Validated: 1
EndChar

StartChar: j
Encoding: 106 106 41
Width: 1024
Flags: W
LayerCount: 2
Fore
SplineSet
173 280 m 1,0,1
 166 289 166 289 153 307.5 c 128,-1,2
 140 326 140 326 134 335 c 1,3,-1
 409 528 l 1,4,-1
 129 690 l 1,5,6
 135 700 135 700 146 719.5 c 128,-1,7
 157 739 157 739 162 748 c 1,8,-1
 486 560 l 2,9,10
 500 550 500 550 502 542 c 2,11,-1
 638 108 l 1,12,-1
 929 82 l 1,13,-1
 923 16 l 1,14,-1
 609 44 l 2,15,16
 589 46 589 46 581 67 c 2,17,-1
 452 478 l 1,18,-1
 173 280 l 1,0,1
EndSplineSet
Validated: 1
EndChar

StartChar: k
Encoding: 107 107 42
Width: 1024
Flags: W
LayerCount: 2
Fore
SplineSet
105 258 m 1,0,-1
 130 281 l 1,1,2
 207 200 207 200 312 154 c 1,3,-1
 488 717 l 2,4,5
 496 739 496 739 520 739 c 0,6,7
 528 739 528 739 532 737 c 0,8,9
 547 731 547 731 552 717 c 2,10,-1
 743 150 l 1,11,12
 847 193 847 193 918 263 c 1,13,-1
 941 240 l 1,14,-1
 965 216 l 1,15,16
 881 134 881 134 770.5 88 c 128,-1,17
 660 42 660 42 543 41 c 0,18,19
 542 41 542 41 538 40.5 c 128,-1,20
 534 40 534 40 532 40 c 0,21,22
 406 40 406 40 287 91.5 c 128,-1,23
 168 143 168 143 81 236 c 1,24,-1
 105 258 l 1,0,-1
375 130 m 1,25,26
 457 106 457 106 532 106 c 2,27,-1
 541 106 l 2,28,29
 606 107 606 107 680 127 c 1,30,-1
 521 599 l 1,31,-1
 375 130 l 1,25,26
EndSplineSet
Validated: 1
EndChar

StartChar: m
Encoding: 109 109 43
Width: 1024
Flags: W
LayerCount: 2
Fore
SplineSet
169 30 m 128,-1,1
 152 30 152 30 142 40 c 128,-1,2
 132 50 132 50 132 67 c 2,3,-1
 134 710 l 2,4,5
 134 727 134 727 144 737 c 128,-1,6
 154 747 154 747 171 747 c 2,7,-1
 879 756 l 2,8,9
 896 756 896 756 906 746 c 128,-1,10
 916 736 916 736 916 719 c 2,11,-1
 917 76 l 2,12,13
 917 59 917 59 907 49 c 128,-1,14
 897 39 897 39 880 39 c 128,-1,15
 863 39 863 39 853 49 c 128,-1,16
 843 59 843 59 843 76 c 2,17,-1
 842 681 l 1,18,-1
 208 673 l 1,19,-1
 206 67 l 2,20,21
 206 50 206 50 196 40 c 128,-1,0
 186 30 186 30 169 30 c 128,-1,1
EndSplineSet
Validated: 1
EndChar

StartChar: n
Encoding: 110 110 44
Width: 1024
Flags: W
LayerCount: 2
Fore
SplineSet
109 289 m 1,0,-1
 136 308 l 1,1,2
 205 209 205 209 318 155 c 1,3,-1
 328 643 l 1,4,-1
 360 642 l 1,5,-1
 393 641 l 1,6,-1
 385 128 l 1,7,8
 431 114 431 114 475 110 c 1,9,-1
 481 642 l 1,10,-1
 514 642 l 1,11,-1
 547 642 l 1,12,-1
 542 108 l 1,13,14
 594 111 594 111 643 124 c 1,15,-1
 641 636 l 1,16,-1
 674 636 l 1,17,-1
 707 636 l 1,18,-1
 710 146 l 1,19,20
 822 195 822 195 896 291 c 1,21,-1
 923 270 l 1,22,-1
 949 250 l 1,23,24
 874 152 874 152 759.5 96 c 128,-1,25
 645 40 645 40 521 40 c 0,26,27
 518 40 518 40 514 40.5 c 128,-1,28
 510 41 510 41 507 41 c 0,29,30
 381 45 381 45 267 105.5 c 128,-1,31
 153 166 153 166 81 269 c 1,32,-1
 109 289 l 1,0,-1
EndSplineSet
Validated: 1
EndChar

StartChar: o
Encoding: 111 111 45
Width: 1024
Flags: W
LayerCount: 2
Fore
SplineSet
949 716 m 1,0,-1
 949 683 l 1,1,-1
 649 683 l 1,2,3
 649 676 649 676 648.5 659.5 c 128,-1,4
 648 643 648 643 648 635 c 0,5,6
 648 606 648 606 649.5 537.5 c 128,-1,7
 651 469 651 469 651 432 c 0,8,9
 651 165 651 165 579 44 c 1,10,-1
 550 61 l 1,11,-1
 521 79 l 1,12,13
 583 182 583 182 583 451 c 0,14,15
 583 478 583 478 582.5 530 c 128,-1,16
 582 582 582 582 582 607 c 0,17,18
 582 667 582 667 585 718 c 0,19,20
 586 730 586 730 595.5 739 c 128,-1,21
 605 748 605 748 618 748 c 2,22,-1
 949 748 l 1,23,-1
 949 716 l 1,0,-1
500 435 m 1,24,25
 490 431 490 431 469 422.5 c 128,-1,26
 448 414 448 414 438 409 c 1,27,-1
 317 687 l 1,28,29
 327 691 327 691 348 700 c 128,-1,30
 369 709 369 709 379 714 c 1,31,-1
 500 435 l 1,24,25
53 685 m 1,32,33
 63 689 63 689 84 697.5 c 128,-1,34
 105 706 105 706 115 710 c 1,35,-1
 358 104 l 1,36,37
 348 100 348 100 327.5 92 c 128,-1,38
 307 84 307 84 297 80 c 1,39,-1
 53 685 l 1,32,33
EndSplineSet
Validated: 1
EndChar

StartChar: p
Encoding: 112 112 46
Width: 1024
Flags: W
LayerCount: 2
Fore
SplineSet
716 258 m 1,0,-1
 750 77 l 1,1,-1
 717 71 l 1,2,-1
 684 65 l 1,3,-1
 655 219 l 1,4,-1
 415 225 l 2,5,6
 404 225 404 225 394.5 232.5 c 128,-1,7
 385 240 385 240 383 251 c 2,8,-1
 306 620 l 1,9,-1
 306 626 l 2,10,11
 306 650 306 650 329 658 c 2,12,-1
 587 744 l 2,13,14
 590 745 590 745 595 745 c 0,15,16
 607 745 607 745 617.5 738.5 c 128,-1,17
 628 732 628 732 630 719 c 2,18,-1
 715 264 l 1,19,-1
 716 258 l 1,0,-1
600 517 m 1,20,-1
 403 478 l 1,21,-1
 419 409 l 1,22,-1
 616 428 l 1,23,-1
 600 517 l 1,20,-1
588 582 m 1,24,-1
 571 669 l 1,25,-1
 378 604 l 1,26,-1
 390 544 l 1,27,-1
 588 582 l 1,24,-1
629 362 m 1,28,-1
 432 343 l 1,29,-1
 443 291 l 1,30,-1
 643 286 l 1,31,-1
 629 362 l 1,28,-1
EndSplineSet
Validated: 1
EndChar

StartChar: r
Encoding: 114 114 47
Width: 1024
Flags: W
LayerCount: 2
Fore
SplineSet
131 653 m 1,0,1
 141 659 141 659 160.5 669.5 c 128,-1,2
 180 680 180 680 189 685 c 1,3,-1
 460 219 l 1,4,-1
 764 713 l 1,5,6
 784 702 784 702 822 680 c 1,7,-1
 502 109 l 2,8,9
 496 96 496 96 477 96 c 0,10,11
 449 96 449 96 437 99 c 0,12,13
 416 104 416 104 409 116 c 2,14,-1
 131 653 l 1,0,1
EndSplineSet
Validated: 1
EndChar

StartChar: s
Encoding: 115 115 48
Width: 1024
Flags: W
LayerCount: 2
Fore
SplineSet
549 629 m 0,0,1
 549 612 549 612 546.5 579 c 128,-1,2
 544 546 544 546 544 530 c 0,3,4
 544 494 544 494 553 445 c 1,5,6
 676 461 676 461 763 564 c 0,7,8
 810 620 810 620 830 693 c 1,9,10
 841 691 841 691 862 685.5 c 128,-1,11
 883 680 883 680 894 677 c 1,12,13
 860 547 860 547 753 462 c 0,14,15
 678 401 678 401 569 380 c 1,16,17
 588 322 588 322 610 278 c 128,-1,18
 632 234 632 234 667 192 c 128,-1,19
 702 150 702 150 753 127.5 c 128,-1,20
 804 105 804 105 869 105 c 0,21,22
 886 105 886 105 894 106 c 1,23,24
 895 95 895 95 897.5 73.5 c 128,-1,25
 900 52 900 52 902 41 c 1,26,27
 878 39 878 39 865 39 c 0,28,29
 788 39 788 39 729 64 c 128,-1,30
 670 89 670 89 628.5 137.5 c 128,-1,31
 587 186 587 186 562 232.5 c 128,-1,32
 537 279 537 279 510 347 c 1,33,34
 442 144 442 144 301 73 c 0,35,36
 235 40 235 40 156 40 c 0,37,38
 144 40 144 40 120 42 c 1,39,-1
 126 108 l 1,40,41
 142 106 142 106 152 106 c 0,42,43
 213 106 213 106 260 124.5 c 128,-1,44
 307 143 307 143 340.5 180 c 128,-1,45
 374 217 374 217 394.5 253 c 128,-1,46
 415 289 415 289 437 342 c 0,47,48
 443 356 443 356 451 377 c 1,49,50
 282 402 282 402 182 526 c 0,51,52
 121 601 121 601 101 693 c 1,53,-1
 167 708 l 1,54,55
 183 631 183 631 234 568 c 0,56,57
 322 456 322 456 467 442 c 0,58,59
 468 444 468 444 468.5 449 c 128,-1,60
 469 454 469 454 469 455 c 0,61,62
 471 460 471 460 471 470 c 2,63,-1
 471 476 l 2,64,65
 471 483 471 483 472 487 c 0,66,67
 477 510 477 510 477 519 c 0,68,69
 477 536 477 536 476 571 c 128,-1,70
 475 606 475 606 475 624 c 2,71,-1
 475 682 l 2,72,73
 475 708 475 708 477 762 c 1,74,75
 488 762 488 762 510 761 c 128,-1,76
 532 760 532 760 543 760 c 1,77,-1
 543 744 l 1,78,-1
 545 744 l 1,79,80
 545 731 545 731 547 691 c 128,-1,81
 549 651 549 651 549 629 c 0,0,1
EndSplineSet
Validated: 1
EndChar

StartChar: t
Encoding: 116 116 49
Width: 849
Flags: W
LayerCount: 2
Fore
SplineSet
371 262 m 2,0,1
 371 277 371 277 382 288 c 128,-1,2
 393 299 393 299 408 299 c 2,3,-1
 718 301 l 1,4,-1
 714 454 l 1,5,-1
 394 447 l 1,6,-1
 393 447 l 2,7,8
 378 447 378 447 367.5 457.5 c 128,-1,9
 357 468 357 468 356 483 c 2,10,-1
 351 643 l 1,11,-1
 212 649 l 1,12,-1
 220 98 l 1,13,-1
 375 108 l 1,14,-1
 371 261 l 1,15,-1
 371 262 l 2,0,1
137 688 m 2,16,17
 137 703 137 703 148 714 c 128,-1,18
 159 725 159 725 174 725 c 2,19,-1
 176 725 l 1,20,-1
 389 716 l 2,21,22
 403 715 403 715 413 704.5 c 128,-1,23
 423 694 423 694 424 680 c 2,24,-1
 429 522 l 1,25,-1
 749 529 l 1,26,-1
 750 529 l 2,27,28
 765 529 765 529 775.5 518.5 c 128,-1,29
 786 508 786 508 787 493 c 2,30,-1
 793 265 l 1,31,-1
 793 264 l 2,32,33
 793 249 793 249 782 238 c 128,-1,34
 771 227 771 227 756 227 c 2,35,-1
 447 225 l 1,36,-1
 451 74 l 1,37,-1
 451 73 l 2,38,39
 451 58 451 58 440.5 47.5 c 128,-1,40
 430 37 430 37 416 36 c 2,41,-1
 185 21 l 1,42,-1
 183 21 l 2,43,44
 168 21 168 21 157 31.5 c 128,-1,45
 146 42 146 42 146 57 c 2,46,-1
 137 688 l 2,16,17
EndSplineSet
Validated: 1
EndChar

StartChar: u
Encoding: 117 117 50
Width: 1024
Flags: W
LayerCount: 2
Fore
SplineSet
870 323 m 1024,0,-1
893 298 m 0,1,2
 873 301 873 301 870 302 c 0,3,4
 645 344 645 344 554 455 c 0,5,6
 545 466 545 466 531.5 537 c 128,-1,7
 518 608 518 608 513 624 c 1,8,-1
 510 138 l 1,9,-1
 743 272 l 1,10,-1
 760 243 l 1,11,-1
 776 215 l 1,12,-1
 494 52 l 2,13,14
 487 48 487 48 477 48 c 0,15,16
 468 48 468 48 461 52 c 2,17,-1
 184 212 l 1,18,-1
 201 240 l 1,19,-1
 217 269 l 1,20,-1
 443 138 l 1,21,-1
 459 609 l 1,22,23
 455 598 455 598 444 558 c 128,-1,24
 433 518 433 518 422.5 482.5 c 128,-1,25
 412 447 412 447 406 440 c 0,26,27
 355 374 355 374 273 338 c 0,28,29
 216 313 216 313 144 300 c 1,30,-1
 123 295 l 1,31,-1
 116 295 l 2,32,33
 78 295 78 295 78 313 c 0,34,35
 78 319 78 319 84 328 c 0,36,37
 92 341 92 341 116.5 347 c 128,-1,38
 141 353 141 353 177.5 359.5 c 128,-1,39
 214 366 214 366 238 377 c 0,40,41
 302 407 302 407 348 463 c 0,42,43
 358 476 358 476 381 557.5 c 128,-1,44
 404 639 404 639 430 711.5 c 128,-1,45
 456 784 456 784 477 786 c 2,46,-1
 478 786 l 2,47,48
 500 786 500 786 528.5 715 c 128,-1,49
 557 644 557 644 581 564.5 c 128,-1,50
 605 485 605 485 611 477 c 0,51,52
 636 446 636 446 708 406.5 c 128,-1,53
 780 367 780 367 838.5 339 c 128,-1,54
 897 311 897 311 897 302 c 0,55,56
 897 299 897 299 893 298 c 0,1,2
EndSplineSet
Validated: 1
EndChar

StartChar: v
Encoding: 118 118 51
Width: 1024
Flags: W
LayerCount: 2
Fore
SplineSet
87 752 m 0,0,1
 87 768 87 768 97.5 778.5 c 128,-1,2
 108 789 108 789 124 789 c 0,3,4
 146 789 146 789 154 774 c 0,5,6
 155 773 155 773 158 771 c 2,7,-1
 556 389 l 1,8,9
 608 431 608 431 644.5 482 c 128,-1,10
 681 533 681 533 696 580.5 c 128,-1,11
 711 628 711 628 716.5 660 c 128,-1,12
 722 692 722 692 722 720 c 0,13,14
 722 725 722 725 722 729.5 c 128,-1,15
 722 734 722 734 721.5 736.5 c 128,-1,16
 721 739 721 739 721 740 c 2,17,-1
 754 745 l 1,18,-1
 786 751 l 1,19,20
 786 750 786 750 786.5 745.5 c 128,-1,21
 787 741 787 741 787.5 734 c 128,-1,22
 788 727 788 727 788 720 c 0,23,24
 788 687 788 687 781.5 649 c 128,-1,25
 775 611 775 611 758 557.5 c 128,-1,26
 741 504 741 504 701.5 447 c 128,-1,27
 662 390 662 390 605 343 c 1,28,-1
 715 237 l 1,29,30
 763 278 763 278 798 343.5 c 128,-1,31
 833 409 833 409 849.5 467 c 128,-1,32
 866 525 866 525 875.5 594 c 128,-1,33
 885 663 885 663 886 692.5 c 128,-1,34
 887 722 887 722 887 751 c 2,35,-1
 887 752 l 1,36,-1
 952 752 l 1,37,38
 952 751 952 751 952.5 745 c 128,-1,39
 953 739 953 739 953 734 c 0,40,41
 953 697 953 697 950.5 657 c 128,-1,42
 948 617 948 617 936 544.5 c 128,-1,43
 924 472 924 472 903 410 c 128,-1,44
 882 348 882 348 839.5 281 c 128,-1,45
 797 214 797 214 739 171 c 1,46,47
 735 161 735 161 717 156 c 1,48,49
 554 51 554 51 282 51 c 0,50,51
 232 51 232 51 183.5 54.5 c 128,-1,52
 135 58 135 58 111 62 c 2,53,-1
 87 66 l 1,54,55
 88 77 88 77 91.5 98.5 c 128,-1,56
 95 120 95 120 97 131 c 1,57,-1
 102 130 l 2,58,59
 106 130 106 130 115 129 c 128,-1,60
 124 128 124 128 135.5 127 c 128,-1,61
 147 126 147 126 162.5 124.5 c 128,-1,62
 178 123 178 123 195 122 c 128,-1,63
 212 121 212 121 233 120.5 c 128,-1,64
 254 120 254 120 275 120 c 0,65,66
 513 120 513 120 652 194 c 1,67,-1
 543 298 l 1,68,69
 411 217 411 217 213 217 c 0,70,71
 188 217 188 217 163 218.5 c 128,-1,72
 138 220 138 220 123 221.5 c 128,-1,73
 108 223 108 223 106 223 c 1,74,-1
 106 289 l 1,75,-1
 144 287 l 2,76,77
 181 285 181 285 213 285 c 0,78,79
 382 285 382 285 493 346 c 1,80,-1
 106 717 l 2,81,82
 103 720 103 720 102 722 c 0,83,84
 87 730 87 730 87 752 c 0,0,1
EndSplineSet
Validated: 1
EndChar

StartChar: w
Encoding: 119 119 52
Width: 1024
Flags: W
LayerCount: 2
Fore
SplineSet
449 91 m 2,0,-1
 171 370 l 2,1,2
 162 379 162 379 162 392 c 0,3,4
 162 408 162 408 171 417 c 2,5,-1
 456 701 l 2,6,7
 466 711 466 711 478 711 c 0,8,9
 493 711 493 711 503 701 c 2,10,-1
 780 423 l 2,11,12
 790 413 790 413 790 400 c 0,13,14
 790 386 790 386 780 376 c 2,15,-1
 496 91 l 2,16,17
 487 82 487 82 473 82 c 0,18,19
 458 82 458 82 449 91 c 2,0,-1
472 162 m 1,20,-1
 710 399 l 1,21,-1
 479 631 l 1,22,-1
 242 393 l 1,23,-1
 472 162 l 1,20,-1
EndSplineSet
Validated: 1
EndChar

StartChar: x
Encoding: 120 120 53
Width: 1024
Flags: W
LayerCount: 2
Fore
SplineSet
130 676 m 1,0,-1
 130 709 l 1,1,-1
 883 712 l 1,2,-1
 883 679 l 1,3,-1
 883 646 l 1,4,-1
 130 643 l 1,5,-1
 130 676 l 1,0,-1
311 61 m 1,6,-1
 279 61 l 1,7,-1
 282 571 l 1,8,-1
 314 571 l 1,9,-1
 347 571 l 1,10,-1
 344 61 l 1,11,-1
 311 61 l 1,6,-1
698 52 m 1,12,-1
 666 52 l 1,13,-1
 669 578 l 1,14,-1
 701 578 l 1,15,-1
 734 578 l 1,16,-1
 731 52 l 1,17,-1
 698 52 l 1,12,-1
EndSplineSet
Validated: 1
EndChar

StartChar: y
Encoding: 121 121 54
Width: 1024
Flags: W
LayerCount: 2
Fore
SplineSet
455 756 m 1,0,-1
 521 756 l 1,1,2
 666 745 666 745 764 649 c 1,3,-1
 888 738 l 1,4,5
 894 729 894 729 907 711.5 c 128,-1,6
 920 694 920 694 927 685 c 1,7,-1
 807 598 l 1,8,9
 860 520 860 520 860 425 c 0,10,11
 860 315 860 315 791 230 c 1,12,-1
 945 116 l 1,13,-1
 906 62 l 1,14,-1
 743 182 l 1,15,16
 650 103 650 103 522 94 c 1,17,-1
 456 94 l 1,18,19
 330 104 330 104 238 184 c 1,20,-1
 97 83 l 1,21,22
 77 113 77 113 58 136 c 1,23,-1
 190 232 l 1,24,25
 123 316 123 316 123 425 c 0,26,27
 123 521 123 521 178 601 c 1,28,-1
 71 681 l 1,29,30
 91 711 91 711 110 734 c 1,31,-1
 221 651 l 1,32,33
 317 744 317 744 455 756 c 1,0,-1
737 270 m 1,34,35
 795 341 795 341 795 425 c 0,36,37
 795 496 795 496 753 558 c 1,38,-1
 710 609 l 1,39,40
 637 676 637 676 530 688 c 1,41,-1
 519 161 l 1,42,-1
 522 161 l 1,43,44
 618 170 618 170 688 223 c 1,45,-1
 737 270 l 1,34,35
444 162 m 1,46,-1
 455 689 l 1,47,48
 350 678 350 678 276 611 c 1,49,-1
 232 561 l 1,50,51
 188 498 188 498 188 425 c 0,52,53
 188 343 188 343 245 271 c 1,54,-1
 293 224 l 1,55,56
 357 174 357 174 444 162 c 1,46,-1
EndSplineSet
Validated: 1
EndChar

StartChar: z
Encoding: 122 122 55
Width: 1024
Flags: W
LayerCount: 2
Fore
SplineSet
553 445 m 1,0,1
 676 461 676 461 763 564 c 0,2,3
 802 611 802 611 822 668 c 1,4,-1
 172 687 l 1,5,6
 191 620 191 620 234 568 c 0,7,8
 322 456 322 456 467 442 c 1,9,-1
 553 445 l 1,0,1
103 725 m 0,10,11
 103 740 103 740 114 751 c 128,-1,12
 125 762 125 762 140 762 c 2,13,-1
 141 762 l 1,14,-1
 859 742 l 2,15,16
 874 741 874 741 884.5 730.5 c 128,-1,17
 895 720 895 720 895 705 c 0,18,19
 895 689 895 689 885 679 c 1,20,21
 886 678 886 678 889 678 c 128,-1,22
 892 678 892 678 894 677 c 0,23,24
 860 547 860 547 753 462 c 0,25,26
 678 401 678 401 569 380 c 1,27,28
 588 322 588 322 610 278 c 128,-1,29
 632 234 632 234 667 192 c 128,-1,30
 702 150 702 150 753 127.5 c 128,-1,31
 804 105 804 105 869 105 c 0,32,33
 886 105 886 105 894 106 c 1,34,35
 895 95 895 95 897.5 73.5 c 128,-1,36
 900 52 900 52 902 41 c 1,37,38
 878 39 878 39 865 39 c 0,39,40
 788 39 788 39 729 64 c 128,-1,41
 670 89 670 89 628.5 137.5 c 128,-1,42
 587 186 587 186 562 232.5 c 128,-1,43
 537 279 537 279 510 347 c 1,44,45
 442 144 442 144 301 73 c 0,46,47
 235 40 235 40 156 40 c 0,48,49
 144 40 144 40 120 42 c 1,50,-1
 126 108 l 1,51,52
 142 106 142 106 152 106 c 0,53,54
 213 106 213 106 260 124.5 c 128,-1,55
 307 143 307 143 340.5 180 c 128,-1,56
 374 217 374 217 394.5 253 c 128,-1,57
 415 289 415 289 437 342 c 0,58,59
 443 356 443 356 451 377 c 1,60,61
 282 402 282 402 182 526 c 0,62,63
 121 601 121 601 101 693 c 1,64,-1
 116 696 l 1,65,66
 103 707 103 707 103 725 c 0,10,11
EndSplineSet
Validated: 1
EndChar

StartChar: braceleft
Encoding: 123 123 56
Width: 774
Flags: W
LayerCount: 2
Fore
SplineSet
177 462 m 0,0,1
 182 462 182 462 194.5 459.5 c 128,-1,2
 207 457 207 457 214 457 c 0,3,4
 238 457 238 457 250.5 469 c 128,-1,5
 263 481 263 481 274 504 c 0,6,7
 281 519 281 519 294 555 c 128,-1,8
 307 591 307 591 313 606 c 0,9,10
 326 633 326 633 348.5 653 c 128,-1,11
 371 673 371 673 405 694 c 128,-1,12
 439 715 439 715 452 726 c 0,13,14
 463 734 463 734 475 734 c 0,15,16
 490 734 490 734 501.5 722.5 c 128,-1,17
 513 711 513 711 513 696 c 0,18,19
 513 678 513 678 499 667 c 0,20,21
 486 657 486 657 449.5 633.5 c 128,-1,22
 413 610 413 610 399 596 c 0,23,24
 389 586 389 586 384 574 c 0,25,26
 380 563 380 563 370 535.5 c 128,-1,27
 360 508 360 508 354.5 493 c 128,-1,28
 349 478 349 478 337.5 457.5 c 128,-1,29
 326 437 326 437 313 423 c 1,30,31
 355 382 355 382 355 288 c 0,32,33
 355 278 355 278 354 259 c 128,-1,34
 353 240 353 240 353 232 c 0,35,36
 353 217 353 217 358.5 204.5 c 128,-1,37
 364 192 364 192 369.5 186 c 128,-1,38
 375 180 375 180 387 169 c 1,39,-1
 461 165 l 2,40,41
 475 164 475 164 486 153 c 128,-1,42
 497 142 497 142 497 127 c 128,-1,43
 497 112 497 112 485.5 100.5 c 128,-1,44
 474 89 474 89 459 89 c 2,45,-1
 457 89 l 1,46,-1
 371 93 l 2,47,48
 359 93 359 93 349 101 c 0,49,50
 315 129 315 129 295.5 158.5 c 128,-1,51
 276 188 276 188 276 233 c 0,52,53
 276 241 276 241 277.5 259.5 c 128,-1,54
 279 278 279 278 279 287 c 0,55,56
 279 369 279 369 246 376 c 0,57,58
 240 376 240 376 202 381 c 0,59,60
 182 382 182 382 170 385 c 128,-1,61
 158 388 158 388 147.5 397.5 c 128,-1,62
 137 407 137 407 137 424 c 128,-1,63
 137 441 137 441 148.5 451.5 c 128,-1,64
 160 462 160 462 177 462 c 0,0,1
EndSplineSet
Validated: 1
EndChar

StartChar: bar
Encoding: 124 124 57
Width: 520
Flags: W
LayerCount: 2
Fore
SplineSet
216 706 m 2,0,1
 216 722 216 722 226.5 732 c 128,-1,2
 237 742 237 742 254 742 c 128,-1,3
 271 742 271 742 281.5 731.5 c 128,-1,4
 292 721 292 721 292 705 c 2,5,-1
 284 114 l 2,6,7
 284 98 284 98 273 87.5 c 128,-1,8
 262 77 262 77 246 77 c 128,-1,9
 230 77 230 77 219 87.5 c 128,-1,10
 208 98 208 98 208 115 c 2,11,-1
 216 706 l 2,0,1
EndSplineSet
Validated: 1
EndChar

StartChar: braceright
Encoding: 125 125 58
Width: 770
Flags: W
LayerCount: 2
Fore
SplineSet
172 118 m 0,0,1
 172 133 172 133 183.5 144.5 c 128,-1,2
 195 156 195 156 210 156 c 0,3,4
 211 156 211 156 213.5 155.5 c 128,-1,5
 216 155 216 155 217 155 c 2,6,-1
 255 147 l 1,7,-1
 263 147 l 2,8,9
 278 147 278 147 325 167 c 0,10,11
 374 189 374 189 396 193 c 0,12,13
 406 195 406 195 412 214 c 0,14,15
 416 228 416 228 421.5 260 c 128,-1,16
 427 292 427 292 430 304 c 0,17,18
 435 372 435 372 484 394 c 1,19,20
 430 412 430 412 391 456 c 128,-1,21
 352 500 352 500 337 557 c 0,22,23
 328 584 328 584 299.5 604 c 128,-1,24
 271 624 271 624 238 629 c 0,25,26
 225 631 225 631 215 642 c 128,-1,27
 205 653 205 653 205 667 c 0,28,29
 205 682 205 682 216.5 693.5 c 128,-1,30
 228 705 228 705 243 705 c 2,31,-1
 249 705 l 1,32,33
 305 697 305 697 351.5 663 c 128,-1,34
 398 629 398 629 411 579 c 0,35,36
 423 532 423 532 460 496.5 c 128,-1,37
 497 461 497 461 545 461 c 0,38,39
 555 461 555 461 576.5 465 c 128,-1,40
 598 469 598 469 610 469 c 0,41,42
 632 469 632 469 647 458.5 c 128,-1,43
 662 448 662 448 662 427 c 0,44,45
 662 421 662 421 660.5 416 c 128,-1,46
 659 411 659 411 657.5 407 c 128,-1,47
 656 403 656 403 652 399 c 128,-1,48
 648 395 648 395 646 392.5 c 128,-1,49
 644 390 644 390 638.5 386.5 c 128,-1,50
 633 383 633 383 631 382 c 128,-1,51
 629 381 629 381 623 377.5 c 128,-1,52
 617 374 617 374 616 374 c 0,53,54
 608 370 608 370 575.5 353.5 c 128,-1,55
 543 337 543 337 534 331 c 0,56,57
 532 330 532 330 524.5 327.5 c 128,-1,58
 517 325 517 325 515 323 c 0,59,60
 507 315 507 315 506 295 c 0,61,62
 505 287 505 287 502 272 c 128,-1,63
 499 257 499 257 498 250 c 0,64,65
 490 194 490 194 471 159 c 128,-1,66
 452 124 452 124 409 117 c 0,67,68
 392 114 392 114 344.5 92.5 c 128,-1,69
 297 71 297 71 263 71 c 2,70,-1
 251 71 l 2,71,72
 250 71 250 71 247.5 71.5 c 128,-1,73
 245 72 245 72 244 72 c 2,74,-1
 203 80 l 2,75,76
 191 82 191 82 181.5 93.5 c 128,-1,77
 172 105 172 105 172 118 c 0,0,1
EndSplineSet
Validated: 1
EndChar

StartChar: acircumflex
Encoding: 226 226 59
Width: 1024
Flags: W
LayerCount: 2
Fore
SplineSet
80 538 m 1,0,-1
 113 537 l 1,1,2
 113 537 113 537 113 515 c 0,3,4
 113 280 113 280 301 260 c 1,5,6
 301 260 301 260 312 260 c 0,7,8
 345 260 345 260 373 283 c 128,-1,9
 401 306 401 306 419.5 340.5 c 128,-1,10
 438 375 438 375 462.5 415 c 128,-1,11
 487 455 487 455 512.5 489.5 c 128,-1,12
 538 524 538 524 581.5 547 c 128,-1,13
 625 570 625 570 679 570 c 1,14,-1
 680 571 l 1,15,16
 783 571 783 571 853.5 474 c 128,-1,17
 924 377 924 377 936 202 c 1,18,-1
 903 200 l 1,19,-1
 870 198 l 1,20,21
 859 355 859 355 804 430 c 128,-1,22
 749 505 749 505 680 505 c 2,23,-1
 679 505 l 2,24,25
 641 505 641 505 608.5 472.5 c 128,-1,26
 576 440 576 440 549.5 394.5 c 128,-1,27
 523 349 523 349 493.5 303 c 128,-1,28
 464 257 464 257 419 225 c 128,-1,29
 374 193 374 193 317 193 c 0,30,31
 311 193 311 193 295 195 c 0,32,33
 179 207 179 207 112.5 289.5 c 128,-1,34
 46 372 46 372 46 517 c 0,35,36
 46 520 46 520 46.5 528 c 128,-1,37
 47 536 47 536 47 539 c 1,38,-1
 80 538 l 1,0,-1
EndSplineSet
Validated: 1
EndChar

StartChar: eacute
Encoding: 233 233 60
Width: 1024
Flags: W
LayerCount: 2
Fore
SplineSet
789 393 m 1,0,1
 789 388 789 388 780.5 386.5 c 128,-1,2
 772 385 772 385 760 385 c 128,-1,3
 748 385 748 385 744 383 c 2,4,-1
 153 54 l 1,5,6
 148 64 148 64 137 83 c 128,-1,7
 126 102 126 102 120 112 c 1,8,-1
 654 409 l 1,9,-1
 116 658 l 1,10,11
 120 667 120 667 130 687.5 c 128,-1,12
 140 708 140 708 144 718 c 1,13,-1
 709 458 l 1,14,-1
 979 465 l 1,15,16
 985 461 985 461 985 448 c 0,17,18
 985 441 985 441 983 425 c 128,-1,19
 981 409 981 409 981 402 c 0,20,21
 981 389 981 389 987 385 c 1,22,-1
 789 393 l 1,0,1
EndSplineSet
Validated: 1
EndChar

StartChar: iacute
Encoding: 237 237 61
Width: 1024
Flags: W
LayerCount: 2
Fore
SplineSet
336 737 m 1,0,-1
 369 738 l 1,1,-1
 380 412 l 1,2,-1
 554 531 l 2,3,4
 563 537 563 537 572 537 c 0,5,6
 591 537 591 537 601 520 c 0,7,8
 605 513 605 513 605 504 c 2,9,-1
 602 92 l 1,10,-1
 569 92 l 1,11,-1
 537 92 l 1,12,-1
 539 440 l 1,13,-1
 367 323 l 2,14,15
 362 319 362 319 352 317 c 2,16,17
 352 317 352 317 348 317 c 0,18,19
 335 317 335 317 325.5 326.5 c 128,-1,20
 316 336 316 336 315 349 c 2,21,-1
 303 736 l 1,22,-1
 336 737 l 1,0,-1
EndSplineSet
Validated: 1
EndChar

StartChar: ntilde
Encoding: 241 241 62
Width: 1024
Flags: W
LayerCount: 2
Fore
SplineSet
787 774 m 1,0,-1
 796 741 l 1,1,2
 682 713 682 713 613 622 c 0,3,4
 546 535 546 535 546 422 c 2,5,6
 546 422 546 422 546 413 c 0,7,8
 549 289 549 289 635 198 c 0,9,10
 722 106 722 106 843 94 c 1,11,-1
 840 61 l 1,12,-1
 837 29 l 1,13,14
 690 43 690 43 586 153 c 0,15,16
 546 196 546 196 520 249 c 1,17,-1
 515 232 l 1,18,-1
 70 383 l 2,19,20
 55 389 55 389 49 402 c 0,21,22
 47 410 47 410 47 415 c 0,23,24
 47 439 47 439 71 446 c 2,25,-1
 495 572 l 1,26,-1
 501 550 l 1,27,28
 521 611 521 611 560 662 c 0,29,30
 643 773 643 773 779 807 c 1,31,-1
 787 774 l 1,0,-1
497 309 m 1,32,33
 481 360 481 360 480 411 c 0,34,35
 480 413 480 413 479.5 416.5 c 128,-1,36
 479 420 479 420 479 422 c 0,37,38
 479 459 479 459 487 501 c 1,39,-1
 189 413 l 1,40,-1
 497 309 l 1,32,33
EndSplineSet
Validated: 1
EndChar

StartChar: oacute
Encoding: 243 243 63
Width: 1024
Flags: W
LayerCount: 2
Fore
SplineSet
159 272 m 1,0,1
 154 279 154 279 141 303 c 128,-1,2
 128 327 128 327 122 334 c 1,3,-1
 656 542 l 1,4,-1
 118 716 l 1,5,6
 122 722 122 722 138 745.5 c 128,-1,7
 154 769 154 769 158 776 c 1,8,-1
 723 594 l 1,9,-1
 905 790 l 1,10,11
 914 786 914 786 932.5 778 c 128,-1,12
 951 770 951 770 960 766 c 1,13,-1
 774 541 l 2,14,15
 772 539 772 539 771 536 c 1,16,-1
 973 536 l 1,17,-1
 973 514 l 1,18,-1
 972 465 l 1,19,-1
 672 465 l 1,20,21
 672 460 672 460 671.5 448.5 c 128,-1,22
 671 437 671 437 671 431 c 0,23,24
 671 410 671 410 672.5 362.5 c 128,-1,25
 674 315 674 315 674 289 c 0,26,27
 674 103 674 103 602 18 c 1,28,-1
 573 30 l 1,29,-1
 544 42 l 1,30,31
 606 114 606 114 606 303 c 0,32,33
 606 322 606 322 605.5 358.5 c 128,-1,34
 605 395 605 395 605 412 c 0,35,36
 605 416 605 416 605.5 429 c 128,-1,37
 606 442 606 442 606 450 c 1,38,-1
 159 272 l 1,0,1
EndSplineSet
Validated: 1
EndChar

StartChar: uacute
Encoding: 250 250 64
Width: 1024
Flags: W
LayerCount: 2
Fore
SplineSet
84 676 m 1,0,-1
 118 687 l 1,1,-1
 304 414 l 1,2,-1
 495 539 l 2,3,4
 504 545 504 545 513 545 c 0,5,6
 518 545 518 545 520 544 c 1,7,-1
 520 604 l 2,8,9
 520 664 520 664 523 715 c 0,10,11
 524 727 524 727 533.5 736 c 128,-1,12
 543 745 543 745 556 745 c 2,13,-1
 887 745 l 1,14,-1
 887 713 l 1,15,-1
 887 680 l 1,16,-1
 587 680 l 1,17,18
 587 673 587 673 586.5 656.5 c 128,-1,19
 586 640 586 640 586 632 c 0,20,21
 586 603 586 603 587.5 534.5 c 128,-1,22
 589 466 589 466 589 429 c 0,23,24
 589 162 589 162 517 41 c 1,25,-1
 488 58 l 1,26,-1
 459 76 l 1,27,28
 521 179 521 179 521 448 c 2,29,-1
 521 486 l 1,30,-1
 480 448 l 1,31,-1
 308 331 l 2,32,33
 303 327 303 327 293 325 c 2,34,-1
 289 325 l 2,35,36
 284 325 284 325 280 326.5 c 128,-1,37
 276 328 276 328 272.5 332 c 128,-1,38
 269 336 269 336 267 339 c 128,-1,39
 265 342 265 342 261 348.5 c 128,-1,40
 257 355 257 355 256 357 c 2,41,-1
 51 657 l 1,42,-1
 84 676 l 1,0,-1
EndSplineSet
Validated: 1
EndChar

StartChar: yacute
Encoding: 253 253 65
Width: 1024
Flags: W
LayerCount: 2
Fore
SplineSet
145 96 m 1,0,-1
 124 121 l 1,1,-1
 824 717 l 1,2,-1
 846 692 l 1,3,-1
 867 666 l 1,4,-1
 167 70 l 1,5,-1
 145 96 l 1,0,-1
EndSplineSet
Validated: 1
EndChar

StartChar: eng
Encoding: 331 331 66
Width: 1024
Flags: W
LayerCount: 2
Fore
SplineSet
118 92 m 1,0,-1
 97 118 l 1,1,-1
 460 413 l 1,2,-1
 105 709 l 1,3,-1
 127 734 l 1,4,-1
 148 760 l 1,5,-1
 512 455 l 1,6,-1
 893 763 l 1,7,-1
 913 737 l 1,8,-1
 934 712 l 1,9,-1
 564 412 l 1,10,-1
 923 112 l 1,11,-1
 901 86 l 1,12,-1
 880 60 l 1,13,-1
 512 369 l 1,14,-1
 138 67 l 1,15,-1
 118 92 l 1,0,-1
EndSplineSet
Validated: 1
EndChar

StartChar: sacute
Encoding: 347 347 67
Width: 1024
Flags: W
LayerCount: 2
Fore
SplineSet
457 262 m 1,0,1
 411 165 411 165 323 106 c 128,-1,2
 235 47 235 47 103 47 c 0,3,4
 79 47 79 47 67 48 c 1,5,6
 68 55 68 55 70 70.5 c 128,-1,7
 72 86 72 86 73 94 c 1,8,9
 81 93 81 93 99 93 c 0,10,11
 160 93 160 93 207 106 c 128,-1,12
 254 119 254 119 287.5 145 c 128,-1,13
 321 171 321 171 341.5 196 c 128,-1,14
 362 221 362 221 384 258 c 0,15,16
 391 270 391 270 398 283 c 1,17,18
 227 302 227 302 129 387 c 0,19,20
 67 440 67 440 48 504 c 1,21,22
 59 506 59 506 81 509 c 128,-1,23
 103 512 103 512 114 514 c 1,24,25
 129 461 129 461 181 416 c 0,26,27
 217 384 217 384 271 364.5 c 128,-1,28
 325 345 325 345 414 328 c 2,29,-1
 507 311 l 2,30,31
 586 297 586 297 646 297 c 0,32,33
 761 297 761 297 812 343 c 0,34,35
 872 396 872 396 872 497 c 0,36,37
 872 567 872 567 849 639 c 128,-1,38
 826 711 826 711 808 741 c 1,39,-1
 836 753 l 1,40,-1
 803 751 l 2,41,42
 802 753 802 753 802 755 c 0,43,44
 802 777 802 777 830 777 c 0,45,46
 839 777 839 777 844 776 c 0,47,48
 875 771 875 771 907.5 686 c 128,-1,49
 940 601 940 601 940 510 c 0,50,51
 940 382 940 382 866 315 c 0,52,53
 794 250 794 250 648 250 c 0,54,55
 586 250 586 250 529 259 c 1,56,57
 569 183 569 183 636 137.5 c 128,-1,58
 703 92 703 92 816 92 c 0,59,60
 833 92 833 92 841 93 c 1,61,62
 842 86 842 86 844.5 70 c 128,-1,63
 847 54 847 54 849 47 c 1,64,65
 837 46 837 46 812 46 c 0,66,67
 735 46 735 46 676 63.5 c 128,-1,68
 617 81 617 81 575.5 115 c 128,-1,69
 534 149 534 149 509 181.5 c 128,-1,70
 484 214 484 214 457 262 c 1,0,1
EndSplineSet
Validated: 1
EndChar

StartChar: zacute
Encoding: 378 378 68
Width: 1024
Flags: W
LayerCount: 2
Fore
SplineSet
897 222 m 1,0,-1
 609 44 l 2,1,2
 608 43 608 43 605 43 c 0,3,4
 599 43 599 43 591.5 51 c 128,-1,5
 584 59 584 59 581 67 c 2,6,-1
 452 478 l 1,7,-1
 173 280 l 1,8,9
 166 289 166 289 153 307.5 c 128,-1,10
 140 326 140 326 134 335 c 1,11,-1
 426 545 l 1,12,-1
 561 799 l 2,13,14
 562 803 562 803 567 803 c 0,15,16
 574 803 574 803 592 790 c 128,-1,17
 610 777 610 777 616 777 c 0,18,19
 617 777 617 777 618 775 c 2,20,-1
 620 773 l 1,21,-1
 508 562 l 2,22,23
 502 548 502 548 502 543 c 2,24,-1
 502 542 l 1,25,-1
 640 132 l 1,26,-1
 866 294 l 1,27,-1
 880 296 l 2,28,29
 897 296 897 296 897 229 c 2,30,-1
 897 222 l 1,0,-1
620 773 m 1024,31,-1
EndSplineSet
Validated: 1
EndChar

StartChar: uni01F5
Encoding: 501 501 69
Width: 1024
Flags: W
LayerCount: 2
Fore
SplineSet
375 416 m 1,0,1
 483 274 483 274 611 274 c 0,2,3
 667 274 667 274 738 301 c 0,4,5
 762 310 762 310 777 339.5 c 128,-1,6
 792 369 792 369 792 407 c 0,7,8
 792 456 792 456 769 498.5 c 128,-1,9
 746 541 746 541 714 553 c 0,10,11
 644 580 644 580 589 580 c 0,12,13
 454 580 454 580 375 416 c 1,0,1
306 424 m 0,14,15
 306 497 306 497 251.5 551.5 c 128,-1,16
 197 606 197 606 124 606 c 1,17,-1
 124 672 l 1,18,19
 226 672 226 672 299 599 c 0,20,21
 337 561 337 561 355 513 c 1,22,23
 449 645 449 645 593 645 c 0,24,25
 658 645 658 645 738 614 c 0,26,27
 808 587 808 587 839 505 c 0,28,29
 858 456 858 456 858 403 c 0,30,31
 858 277 858 277 763 240 c 0,32,33
 680 209 680 209 613 209 c 0,34,35
 468 209 468 209 355 334 c 1,36,37
 338 290 338 290 306 255 c 0,38,39
 240 182 240 182 141 176 c 1,40,41
 140 187 140 187 139 209 c 128,-1,42
 138 231 138 231 137 242 c 1,43,44
 200 246 200 246 248 291 c 128,-1,45
 296 336 296 336 304 399 c 0,46,47
 303 401 303 401 300.5 405.5 c 128,-1,48
 298 410 298 410 296 412 c 1,49,-1
 305 419 l 2,50,51
 305 420 305 420 305.5 421.5 c 128,-1,52
 306 423 306 423 306 424 c 0,14,15
EndSplineSet
Validated: 1
EndChar

StartChar: uni1E3F
Encoding: 7743 7743 70
Width: 1024
Flags: W
LayerCount: 2
Fore
SplineSet
62 74 m 1,0,-1
 66 106 l 1,1,2
 66 106 66 106 69 106 c 0,3,4
 73 106 73 106 76.5 107.5 c 128,-1,5
 80 109 80 109 84 114 c 128,-1,6
 88 119 88 119 91.5 124 c 128,-1,7
 95 129 95 129 103 140 c 128,-1,8
 111 151 111 151 120 162 c 0,9,10
 151 201 151 201 178 265 c 128,-1,11
 205 329 205 329 221.5 390.5 c 128,-1,12
 238 452 238 452 263.5 517 c 128,-1,13
 289 582 289 582 317.5 630 c 128,-1,14
 346 678 346 678 397 709 c 128,-1,15
 448 740 448 740 515 740 c 0,16,17
 518 740 518 740 523 739.5 c 128,-1,18
 528 739 528 739 531 739 c 0,19,20
 614 735 614 735 666.5 690 c 128,-1,21
 719 645 719 645 743 573.5 c 128,-1,22
 767 502 767 502 781 427 c 128,-1,23
 795 352 795 352 815 269 c 128,-1,24
 835 186 835 186 865 137 c 0,25,26
 893 91 893 91 926 91 c 2,27,-1
 934 91 l 1,28,-1
 942 26 l 1,29,30
 937 25 937 25 927 25 c 0,31,32
 856 25 856 25 808 102 c 0,33,34
 766 170 766 170 741 257 c 128,-1,35
 716 344 716 344 706 411.5 c 128,-1,36
 696 479 696 479 680 540 c 128,-1,37
 664 601 664 601 627.5 636 c 128,-1,38
 591 671 591 671 527 674 c 2,39,-1
 515 674 l 2,40,41
 453 674 453 674 413.5 640.5 c 128,-1,42
 374 607 374 607 351.5 546.5 c 128,-1,43
 329 486 329 486 310 419 c 128,-1,44
 291 352 291 352 256 268 c 128,-1,45
 221 184 221 184 171 121 c 1,46,-1
 158 100 l 2,47,48
 144 80 144 80 136 71 c 128,-1,49
 128 62 128 62 109 51 c 128,-1,50
 90 40 90 40 69 40 c 0,51,52
 68 40 68 40 64 40.5 c 128,-1,53
 60 41 60 41 59 41 c 1,54,-1
 62 74 l 1,0,-1
EndSplineSet
Validated: 1
EndChar

StartChar: ygrave
Encoding: 7923 7923 71
Width: 1024
Flags: W
LayerCount: 2
Fore
SplineSet
145 691 m 1,0,-1
 167 717 l 1,1,-1
 867 121 l 1,2,-1
 846 95 l 1,3,-1
 824 70 l 1,4,-1
 124 666 l 1,5,-1
 145 691 l 1,0,-1
EndSplineSet
Validated: 1
EndChar

StartChar: nacute
Encoding: 324 324 72
Width: 1024
Flags: W
LayerCount: 2
Fore
SplineSet
521 40 m 1,0,-1
 507 41 l 1,1,2
 381 45 381 45 267 105.5 c 128,-1,3
 153 166 153 166 81 269 c 1,4,-1
 136 308 l 1,5,6
 205 209 205 209 318 155 c 1,7,-1
 385 128 l 1,8,9
 431 114 431 114 475 110 c 1,10,-1
 481 599 l 1,11,-1
 71 609 l 2,12,13
 56 609 56 609 45.5 619.5 c 128,-1,14
 35 630 35 630 35 646 c 128,-1,15
 35 662 35 662 45.5 672.5 c 128,-1,16
 56 683 56 683 64 683 c 128,-1,17
 72 683 72 683 917 663 c 0,18,19
 932 663 932 663 942.5 652.5 c 128,-1,20
 953 642 953 642 953 626 c 128,-1,21
 953 610 953 610 942.5 599.5 c 128,-1,22
 932 589 932 589 916 589 c 2,23,-1
 547 597 l 1,24,-1
 542 108 l 1,25,26
 594 111 594 111 643 124 c 1,27,-1
 710 146 l 1,28,29
 822 195 822 195 896 291 c 1,30,-1
 949 250 l 1,31,32
 874 152 874 152 759.5 96 c 128,-1,33
 645 40 645 40 521 40 c 1,0,-1
EndSplineSet
Validated: 1
EndChar
